G04 #@! TF.GenerationSoftware,KiCad,Pcbnew,(2018-01-21 revision 6b9866de8)-makepkg*
G04 #@! TF.CreationDate,2018-10-15T22:59:35+02:00*
G04 #@! TF.ProjectId,A1339_square board,41313333395F73717561726520626F61,rev?*
G04 #@! TF.SameCoordinates,Original*
G04 #@! TF.FileFunction,Copper,L1,Top,Signal*
G04 #@! TF.FilePolarity,Positive*
%FSLAX46Y46*%
G04 Gerber Fmt 4.6, Leading zero omitted, Abs format (unit mm)*
G04 Created by KiCad (PCBNEW (2018-01-21 revision 6b9866de8)-makepkg) date 10/15/18 22:59:35*
%MOMM*%
%LPD*%
G01*
G04 APERTURE LIST*
%ADD10C,1.998980*%
%ADD11R,1.450000X0.450000*%
%ADD12C,0.800000*%
%ADD13C,0.254000*%
%ADD14C,0.152400*%
%ADD15C,0.203200*%
G04 APERTURE END LIST*
D10*
X132399000Y-82894000D03*
X134431000Y-81433500D03*
X136463000Y-82894000D03*
X138495000Y-81433500D03*
X140527000Y-82894000D03*
X142559000Y-81433500D03*
D11*
X134550000Y-84775000D03*
X134550000Y-85425000D03*
X134550000Y-86075000D03*
X134550000Y-86725000D03*
X134550000Y-87375000D03*
X134550000Y-88025000D03*
X134550000Y-88675000D03*
X140450000Y-88675000D03*
X140450000Y-88025000D03*
X140450000Y-87375000D03*
X140450000Y-86725000D03*
X140450000Y-86075000D03*
X140450000Y-85425000D03*
X140450000Y-84775000D03*
D12*
X133125000Y-84850000D03*
X136125000Y-88100000D03*
X136125000Y-84978600D03*
X139123600Y-86350000D03*
X138875000Y-88350000D03*
D13*
X133125000Y-84850000D02*
X133700000Y-85425000D01*
X133700000Y-85425000D02*
X134550000Y-85425000D01*
X134550000Y-88675000D02*
X134550000Y-88025000D01*
X134550000Y-87375000D02*
X134550000Y-88025000D01*
X136050000Y-88025000D02*
X136125000Y-88100000D01*
X134550000Y-88025000D02*
X136050000Y-88025000D01*
X136125000Y-84978600D02*
X135921400Y-84775000D01*
X135921400Y-84775000D02*
X134550000Y-84775000D01*
D14*
X139498600Y-86725000D02*
X139123600Y-86350000D01*
X140450000Y-86725000D02*
X139498600Y-86725000D01*
X137462489Y-87937489D02*
X137462489Y-83893489D01*
X139125000Y-89600000D02*
X137462489Y-87937489D01*
X141875000Y-89600000D02*
X139125000Y-89600000D01*
X141875000Y-87922600D02*
X141875000Y-89600000D01*
X141327400Y-87375000D02*
X141875000Y-87922600D01*
X140450000Y-87375000D02*
X141327400Y-87375000D01*
X137462489Y-83893489D02*
X136463000Y-82894000D01*
X140450000Y-88025000D02*
X139572600Y-88025000D01*
X139572600Y-88025000D02*
X138495000Y-86947400D01*
X138495000Y-86947400D02*
X138495000Y-82846992D01*
X138495000Y-82846992D02*
X138495000Y-81433500D01*
X139200000Y-88675000D02*
X138875000Y-88350000D01*
X140450000Y-88675000D02*
X139200000Y-88675000D01*
D15*
G36*
X133368343Y-80723455D02*
X133177510Y-81184165D01*
X133177510Y-81682835D01*
X133283189Y-81937966D01*
X133276475Y-81944680D01*
X133169459Y-81747128D01*
X132671923Y-81539586D01*
X132132836Y-81538241D01*
X131634270Y-81743298D01*
X131628541Y-81747128D01*
X131521524Y-81944682D01*
X132399000Y-82822158D01*
X132413143Y-82808016D01*
X132484985Y-82879858D01*
X132470842Y-82894000D01*
X133348318Y-83771476D01*
X133545872Y-83664459D01*
X133753414Y-83166923D01*
X133754759Y-82627836D01*
X133686380Y-82461582D01*
X133720955Y-82496157D01*
X134181665Y-82686990D01*
X134680335Y-82686990D01*
X135141045Y-82496157D01*
X135362934Y-82274268D01*
X135209510Y-82644665D01*
X135209510Y-83143335D01*
X135400343Y-83604045D01*
X135752955Y-83956657D01*
X136213665Y-84147490D01*
X136712335Y-84147490D01*
X137092179Y-83990153D01*
X137132289Y-84030263D01*
X137132289Y-87937489D01*
X137157424Y-88063851D01*
X137229002Y-88170976D01*
X138891511Y-89833484D01*
X138891513Y-89833487D01*
X138998638Y-89905065D01*
X139125000Y-89930201D01*
X139125005Y-89930200D01*
X141875000Y-89930200D01*
X142001362Y-89905065D01*
X142108487Y-89833487D01*
X142180065Y-89726362D01*
X142205200Y-89600000D01*
X142205200Y-87922600D01*
X142180065Y-87796238D01*
X142108487Y-87689113D01*
X142108484Y-87689111D01*
X141560887Y-87141513D01*
X141453762Y-87069935D01*
X141416579Y-87062539D01*
X141414263Y-87050894D01*
X141413666Y-87050000D01*
X141414263Y-87049106D01*
X141433976Y-86950000D01*
X141433976Y-86500000D01*
X141414263Y-86400894D01*
X141413666Y-86400000D01*
X141414263Y-86399106D01*
X141433976Y-86300000D01*
X141433976Y-85850000D01*
X141414263Y-85750894D01*
X141413666Y-85750000D01*
X141414263Y-85749106D01*
X141433976Y-85650000D01*
X141433976Y-85200000D01*
X141414263Y-85100894D01*
X141413666Y-85100000D01*
X141414263Y-85099106D01*
X141433976Y-85000000D01*
X141433976Y-84550000D01*
X141414263Y-84450894D01*
X141358124Y-84366876D01*
X141274106Y-84310737D01*
X141175000Y-84291024D01*
X139725000Y-84291024D01*
X139625894Y-84310737D01*
X139541876Y-84366876D01*
X139485737Y-84450894D01*
X139466024Y-84550000D01*
X139466024Y-85000000D01*
X139485737Y-85099106D01*
X139486334Y-85100000D01*
X139485737Y-85100894D01*
X139466024Y-85200000D01*
X139466024Y-85650000D01*
X139485737Y-85749106D01*
X139486334Y-85750000D01*
X139485737Y-85750894D01*
X139478162Y-85788979D01*
X139253689Y-85696000D01*
X138993511Y-85696000D01*
X138825200Y-85765716D01*
X138825200Y-82653495D01*
X139205045Y-82496157D01*
X139426934Y-82274268D01*
X139273510Y-82644665D01*
X139273510Y-83143335D01*
X139464343Y-83604045D01*
X139816955Y-83956657D01*
X140277665Y-84147490D01*
X140776335Y-84147490D01*
X141237045Y-83956657D01*
X141589657Y-83604045D01*
X141780490Y-83143335D01*
X141780490Y-82644665D01*
X141627066Y-82274268D01*
X141848955Y-82496157D01*
X142309665Y-82686990D01*
X142808335Y-82686990D01*
X143269045Y-82496157D01*
X143621657Y-82143545D01*
X143796000Y-81722645D01*
X143796000Y-91979997D01*
X143639863Y-92011055D01*
X143521265Y-92060180D01*
X143164400Y-92298630D01*
X143073630Y-92389400D01*
X142835180Y-92746265D01*
X142786055Y-92864863D01*
X142754997Y-93021000D01*
X140370003Y-93021000D01*
X140338945Y-92864863D01*
X140289820Y-92746265D01*
X140051370Y-92389400D01*
X139960598Y-92298628D01*
X139603735Y-92060180D01*
X139485137Y-92011055D01*
X139064185Y-91927322D01*
X138935815Y-91927322D01*
X138514863Y-92011055D01*
X138396265Y-92060180D01*
X138039400Y-92298630D01*
X137948630Y-92389400D01*
X137710180Y-92746265D01*
X137661055Y-92864863D01*
X137629997Y-93021000D01*
X132245003Y-93021000D01*
X132213945Y-92864863D01*
X132164820Y-92746265D01*
X131926370Y-92389400D01*
X131835598Y-92298628D01*
X131478735Y-92060180D01*
X131360137Y-92011055D01*
X131204000Y-91979997D01*
X131204000Y-87480003D01*
X131360137Y-87448945D01*
X131478735Y-87399820D01*
X131835600Y-87161370D01*
X131926370Y-87070600D01*
X132164820Y-86713735D01*
X132213945Y-86595137D01*
X132297678Y-86174185D01*
X132297678Y-86045815D01*
X132213945Y-85624863D01*
X132189025Y-85564700D01*
X133469400Y-85564700D01*
X133469400Y-85720733D01*
X133523537Y-85851431D01*
X133566024Y-85893918D01*
X133566024Y-86300000D01*
X133585737Y-86399106D01*
X133586334Y-86400000D01*
X133585737Y-86400894D01*
X133566024Y-86500000D01*
X133566024Y-86950000D01*
X133585737Y-87049106D01*
X133586334Y-87050000D01*
X133585737Y-87050894D01*
X133566024Y-87150000D01*
X133566024Y-87600000D01*
X133585737Y-87699106D01*
X133586334Y-87700000D01*
X133585737Y-87700894D01*
X133566024Y-87800000D01*
X133566024Y-88250000D01*
X133585737Y-88349106D01*
X133586334Y-88350000D01*
X133585737Y-88350894D01*
X133566024Y-88450000D01*
X133566024Y-88900000D01*
X133585737Y-88999106D01*
X133641876Y-89083124D01*
X133725894Y-89139263D01*
X133825000Y-89158976D01*
X135275000Y-89158976D01*
X135374106Y-89139263D01*
X135458124Y-89083124D01*
X135514263Y-88999106D01*
X135533976Y-88900000D01*
X135533976Y-88450000D01*
X135525224Y-88406000D01*
X135543864Y-88406000D01*
X135570565Y-88470461D01*
X135754539Y-88654435D01*
X135994911Y-88754000D01*
X136255089Y-88754000D01*
X136495461Y-88654435D01*
X136679435Y-88470461D01*
X136779000Y-88230089D01*
X136779000Y-87969911D01*
X136679435Y-87729539D01*
X136495461Y-87545565D01*
X136255089Y-87446000D01*
X135994911Y-87446000D01*
X135754539Y-87545565D01*
X135656104Y-87644000D01*
X135525224Y-87644000D01*
X135533976Y-87600000D01*
X135533976Y-87150000D01*
X135514263Y-87050894D01*
X135513666Y-87050000D01*
X135514263Y-87049106D01*
X135533976Y-86950000D01*
X135533976Y-86500000D01*
X135514263Y-86400894D01*
X135513666Y-86400000D01*
X135514263Y-86399106D01*
X135533976Y-86300000D01*
X135533976Y-85893918D01*
X135576463Y-85851431D01*
X135630600Y-85720733D01*
X135630600Y-85564700D01*
X135541700Y-85475800D01*
X134600800Y-85475800D01*
X134600800Y-85495800D01*
X134499200Y-85495800D01*
X134499200Y-85475800D01*
X133558300Y-85475800D01*
X133469400Y-85564700D01*
X132189025Y-85564700D01*
X132164820Y-85506265D01*
X131926370Y-85149400D01*
X131906237Y-85129267D01*
X133469400Y-85129267D01*
X133469400Y-85285300D01*
X133558300Y-85374200D01*
X134499200Y-85374200D01*
X134499200Y-85354200D01*
X134600800Y-85354200D01*
X134600800Y-85374200D01*
X135541700Y-85374200D01*
X135569474Y-85346426D01*
X135570565Y-85349061D01*
X135754539Y-85533035D01*
X135994911Y-85632600D01*
X136255089Y-85632600D01*
X136495461Y-85533035D01*
X136679435Y-85349061D01*
X136779000Y-85108689D01*
X136779000Y-84848511D01*
X136679435Y-84608139D01*
X136495461Y-84424165D01*
X136255089Y-84324600D01*
X135994911Y-84324600D01*
X135827364Y-84394000D01*
X135476248Y-84394000D01*
X135458124Y-84366876D01*
X135374106Y-84310737D01*
X135275000Y-84291024D01*
X133825000Y-84291024D01*
X133725894Y-84310737D01*
X133641876Y-84366876D01*
X133585737Y-84450894D01*
X133566024Y-84550000D01*
X133566024Y-84956082D01*
X133523537Y-84998569D01*
X133469400Y-85129267D01*
X131906237Y-85129267D01*
X131835598Y-85058628D01*
X131478735Y-84820180D01*
X131360137Y-84771055D01*
X131204000Y-84739997D01*
X131204000Y-83843318D01*
X131521524Y-83843318D01*
X131628541Y-84040872D01*
X132126077Y-84248414D01*
X132665164Y-84249759D01*
X133163730Y-84044702D01*
X133169459Y-84040872D01*
X133276476Y-83843318D01*
X132399000Y-82965842D01*
X131521524Y-83843318D01*
X131204000Y-83843318D01*
X131204000Y-83551026D01*
X131248298Y-83658730D01*
X131252128Y-83664459D01*
X131449682Y-83771476D01*
X132327158Y-82894000D01*
X131449682Y-82016524D01*
X131252128Y-82123541D01*
X131204000Y-82238917D01*
X131204000Y-80429000D01*
X133662798Y-80429000D01*
X133368343Y-80723455D01*
X133368343Y-80723455D01*
G37*
X133368343Y-80723455D02*
X133177510Y-81184165D01*
X133177510Y-81682835D01*
X133283189Y-81937966D01*
X133276475Y-81944680D01*
X133169459Y-81747128D01*
X132671923Y-81539586D01*
X132132836Y-81538241D01*
X131634270Y-81743298D01*
X131628541Y-81747128D01*
X131521524Y-81944682D01*
X132399000Y-82822158D01*
X132413143Y-82808016D01*
X132484985Y-82879858D01*
X132470842Y-82894000D01*
X133348318Y-83771476D01*
X133545872Y-83664459D01*
X133753414Y-83166923D01*
X133754759Y-82627836D01*
X133686380Y-82461582D01*
X133720955Y-82496157D01*
X134181665Y-82686990D01*
X134680335Y-82686990D01*
X135141045Y-82496157D01*
X135362934Y-82274268D01*
X135209510Y-82644665D01*
X135209510Y-83143335D01*
X135400343Y-83604045D01*
X135752955Y-83956657D01*
X136213665Y-84147490D01*
X136712335Y-84147490D01*
X137092179Y-83990153D01*
X137132289Y-84030263D01*
X137132289Y-87937489D01*
X137157424Y-88063851D01*
X137229002Y-88170976D01*
X138891511Y-89833484D01*
X138891513Y-89833487D01*
X138998638Y-89905065D01*
X139125000Y-89930201D01*
X139125005Y-89930200D01*
X141875000Y-89930200D01*
X142001362Y-89905065D01*
X142108487Y-89833487D01*
X142180065Y-89726362D01*
X142205200Y-89600000D01*
X142205200Y-87922600D01*
X142180065Y-87796238D01*
X142108487Y-87689113D01*
X142108484Y-87689111D01*
X141560887Y-87141513D01*
X141453762Y-87069935D01*
X141416579Y-87062539D01*
X141414263Y-87050894D01*
X141413666Y-87050000D01*
X141414263Y-87049106D01*
X141433976Y-86950000D01*
X141433976Y-86500000D01*
X141414263Y-86400894D01*
X141413666Y-86400000D01*
X141414263Y-86399106D01*
X141433976Y-86300000D01*
X141433976Y-85850000D01*
X141414263Y-85750894D01*
X141413666Y-85750000D01*
X141414263Y-85749106D01*
X141433976Y-85650000D01*
X141433976Y-85200000D01*
X141414263Y-85100894D01*
X141413666Y-85100000D01*
X141414263Y-85099106D01*
X141433976Y-85000000D01*
X141433976Y-84550000D01*
X141414263Y-84450894D01*
X141358124Y-84366876D01*
X141274106Y-84310737D01*
X141175000Y-84291024D01*
X139725000Y-84291024D01*
X139625894Y-84310737D01*
X139541876Y-84366876D01*
X139485737Y-84450894D01*
X139466024Y-84550000D01*
X139466024Y-85000000D01*
X139485737Y-85099106D01*
X139486334Y-85100000D01*
X139485737Y-85100894D01*
X139466024Y-85200000D01*
X139466024Y-85650000D01*
X139485737Y-85749106D01*
X139486334Y-85750000D01*
X139485737Y-85750894D01*
X139478162Y-85788979D01*
X139253689Y-85696000D01*
X138993511Y-85696000D01*
X138825200Y-85765716D01*
X138825200Y-82653495D01*
X139205045Y-82496157D01*
X139426934Y-82274268D01*
X139273510Y-82644665D01*
X139273510Y-83143335D01*
X139464343Y-83604045D01*
X139816955Y-83956657D01*
X140277665Y-84147490D01*
X140776335Y-84147490D01*
X141237045Y-83956657D01*
X141589657Y-83604045D01*
X141780490Y-83143335D01*
X141780490Y-82644665D01*
X141627066Y-82274268D01*
X141848955Y-82496157D01*
X142309665Y-82686990D01*
X142808335Y-82686990D01*
X143269045Y-82496157D01*
X143621657Y-82143545D01*
X143796000Y-81722645D01*
X143796000Y-91979997D01*
X143639863Y-92011055D01*
X143521265Y-92060180D01*
X143164400Y-92298630D01*
X143073630Y-92389400D01*
X142835180Y-92746265D01*
X142786055Y-92864863D01*
X142754997Y-93021000D01*
X140370003Y-93021000D01*
X140338945Y-92864863D01*
X140289820Y-92746265D01*
X140051370Y-92389400D01*
X139960598Y-92298628D01*
X139603735Y-92060180D01*
X139485137Y-92011055D01*
X139064185Y-91927322D01*
X138935815Y-91927322D01*
X138514863Y-92011055D01*
X138396265Y-92060180D01*
X138039400Y-92298630D01*
X137948630Y-92389400D01*
X137710180Y-92746265D01*
X137661055Y-92864863D01*
X137629997Y-93021000D01*
X132245003Y-93021000D01*
X132213945Y-92864863D01*
X132164820Y-92746265D01*
X131926370Y-92389400D01*
X131835598Y-92298628D01*
X131478735Y-92060180D01*
X131360137Y-92011055D01*
X131204000Y-91979997D01*
X131204000Y-87480003D01*
X131360137Y-87448945D01*
X131478735Y-87399820D01*
X131835600Y-87161370D01*
X131926370Y-87070600D01*
X132164820Y-86713735D01*
X132213945Y-86595137D01*
X132297678Y-86174185D01*
X132297678Y-86045815D01*
X132213945Y-85624863D01*
X132189025Y-85564700D01*
X133469400Y-85564700D01*
X133469400Y-85720733D01*
X133523537Y-85851431D01*
X133566024Y-85893918D01*
X133566024Y-86300000D01*
X133585737Y-86399106D01*
X133586334Y-86400000D01*
X133585737Y-86400894D01*
X133566024Y-86500000D01*
X133566024Y-86950000D01*
X133585737Y-87049106D01*
X133586334Y-87050000D01*
X133585737Y-87050894D01*
X133566024Y-87150000D01*
X133566024Y-87600000D01*
X133585737Y-87699106D01*
X133586334Y-87700000D01*
X133585737Y-87700894D01*
X133566024Y-87800000D01*
X133566024Y-88250000D01*
X133585737Y-88349106D01*
X133586334Y-88350000D01*
X133585737Y-88350894D01*
X133566024Y-88450000D01*
X133566024Y-88900000D01*
X133585737Y-88999106D01*
X133641876Y-89083124D01*
X133725894Y-89139263D01*
X133825000Y-89158976D01*
X135275000Y-89158976D01*
X135374106Y-89139263D01*
X135458124Y-89083124D01*
X135514263Y-88999106D01*
X135533976Y-88900000D01*
X135533976Y-88450000D01*
X135525224Y-88406000D01*
X135543864Y-88406000D01*
X135570565Y-88470461D01*
X135754539Y-88654435D01*
X135994911Y-88754000D01*
X136255089Y-88754000D01*
X136495461Y-88654435D01*
X136679435Y-88470461D01*
X136779000Y-88230089D01*
X136779000Y-87969911D01*
X136679435Y-87729539D01*
X136495461Y-87545565D01*
X136255089Y-87446000D01*
X135994911Y-87446000D01*
X135754539Y-87545565D01*
X135656104Y-87644000D01*
X135525224Y-87644000D01*
X135533976Y-87600000D01*
X135533976Y-87150000D01*
X135514263Y-87050894D01*
X135513666Y-87050000D01*
X135514263Y-87049106D01*
X135533976Y-86950000D01*
X135533976Y-86500000D01*
X135514263Y-86400894D01*
X135513666Y-86400000D01*
X135514263Y-86399106D01*
X135533976Y-86300000D01*
X135533976Y-85893918D01*
X135576463Y-85851431D01*
X135630600Y-85720733D01*
X135630600Y-85564700D01*
X135541700Y-85475800D01*
X134600800Y-85475800D01*
X134600800Y-85495800D01*
X134499200Y-85495800D01*
X134499200Y-85475800D01*
X133558300Y-85475800D01*
X133469400Y-85564700D01*
X132189025Y-85564700D01*
X132164820Y-85506265D01*
X131926370Y-85149400D01*
X131906237Y-85129267D01*
X133469400Y-85129267D01*
X133469400Y-85285300D01*
X133558300Y-85374200D01*
X134499200Y-85374200D01*
X134499200Y-85354200D01*
X134600800Y-85354200D01*
X134600800Y-85374200D01*
X135541700Y-85374200D01*
X135569474Y-85346426D01*
X135570565Y-85349061D01*
X135754539Y-85533035D01*
X135994911Y-85632600D01*
X136255089Y-85632600D01*
X136495461Y-85533035D01*
X136679435Y-85349061D01*
X136779000Y-85108689D01*
X136779000Y-84848511D01*
X136679435Y-84608139D01*
X136495461Y-84424165D01*
X136255089Y-84324600D01*
X135994911Y-84324600D01*
X135827364Y-84394000D01*
X135476248Y-84394000D01*
X135458124Y-84366876D01*
X135374106Y-84310737D01*
X135275000Y-84291024D01*
X133825000Y-84291024D01*
X133725894Y-84310737D01*
X133641876Y-84366876D01*
X133585737Y-84450894D01*
X133566024Y-84550000D01*
X133566024Y-84956082D01*
X133523537Y-84998569D01*
X133469400Y-85129267D01*
X131906237Y-85129267D01*
X131835598Y-85058628D01*
X131478735Y-84820180D01*
X131360137Y-84771055D01*
X131204000Y-84739997D01*
X131204000Y-83843318D01*
X131521524Y-83843318D01*
X131628541Y-84040872D01*
X132126077Y-84248414D01*
X132665164Y-84249759D01*
X133163730Y-84044702D01*
X133169459Y-84040872D01*
X133276476Y-83843318D01*
X132399000Y-82965842D01*
X131521524Y-83843318D01*
X131204000Y-83843318D01*
X131204000Y-83551026D01*
X131248298Y-83658730D01*
X131252128Y-83664459D01*
X131449682Y-83771476D01*
X132327158Y-82894000D01*
X131449682Y-82016524D01*
X131252128Y-82123541D01*
X131204000Y-82238917D01*
X131204000Y-80429000D01*
X133662798Y-80429000D01*
X133368343Y-80723455D01*
M02*
