G04 #@! TF.GenerationSoftware,KiCad,Pcbnew,(2018-01-21 revision 6b9866de8)-makepkg*
G04 #@! TF.CreationDate,2018-10-15T22:59:35+02:00*
G04 #@! TF.ProjectId,A1339_square board,41313333395F73717561726520626F61,rev?*
G04 #@! TF.SameCoordinates,Original*
G04 #@! TF.FileFunction,Copper,L2,Bot,Signal*
G04 #@! TF.FilePolarity,Positive*
%FSLAX46Y46*%
G04 Gerber Fmt 4.6, Leading zero omitted, Abs format (unit mm)*
G04 Created by KiCad (PCBNEW (2018-01-21 revision 6b9866de8)-makepkg) date 10/15/18 22:59:35*
%MOMM*%
%LPD*%
G01*
G04 APERTURE LIST*
%ADD10R,0.700000X0.600000*%
%ADD11C,1.998980*%
%ADD12C,0.800000*%
%ADD13C,0.254000*%
%ADD14C,0.152400*%
%ADD15C,0.203200*%
G04 APERTURE END LIST*
D10*
X134625000Y-86100000D03*
X134625000Y-87100000D03*
X135875000Y-87100000D03*
X135875000Y-86100000D03*
D11*
X132399000Y-82894000D03*
X134431000Y-81433500D03*
X136463000Y-82894000D03*
X138495000Y-81433500D03*
X140527000Y-82894000D03*
X142559000Y-81433500D03*
D12*
X133125000Y-84850000D03*
X136125000Y-88100000D03*
X136125000Y-84978600D03*
X139123600Y-86350000D03*
X138875000Y-88350000D03*
D13*
X134625000Y-85350000D02*
X134125000Y-84850000D01*
X134625000Y-86100000D02*
X134625000Y-85350000D01*
X134125000Y-84850000D02*
X133125000Y-84850000D01*
X135875000Y-85228600D02*
X136125000Y-84978600D01*
X135875000Y-86100000D02*
X135875000Y-85228600D01*
D14*
X137123600Y-84350000D02*
X135625000Y-84350000D01*
X139123600Y-86350000D02*
X137123600Y-84350000D01*
X135625000Y-84350000D02*
X134431000Y-83156000D01*
X134431000Y-83156000D02*
X134431000Y-81433500D01*
X139875000Y-88350000D02*
X140527000Y-87698000D01*
X140527000Y-87698000D02*
X140527000Y-82894000D01*
X138875000Y-88350000D02*
X139875000Y-88350000D01*
D15*
G36*
X141681524Y-80484182D02*
X142559000Y-81361658D01*
X143436476Y-80484182D01*
X143406583Y-80429000D01*
X143796000Y-80429000D01*
X143796000Y-80878591D01*
X143709702Y-80668770D01*
X143705872Y-80663041D01*
X143508318Y-80556024D01*
X142630842Y-81433500D01*
X143508318Y-82310976D01*
X143705872Y-82203959D01*
X143796000Y-81987897D01*
X143796000Y-91979997D01*
X143639863Y-92011055D01*
X143521265Y-92060180D01*
X143164400Y-92298630D01*
X143073630Y-92389400D01*
X142835180Y-92746265D01*
X142786055Y-92864863D01*
X142754997Y-93021000D01*
X140370003Y-93021000D01*
X140338945Y-92864863D01*
X140289820Y-92746265D01*
X140051370Y-92389400D01*
X139960598Y-92298628D01*
X139603735Y-92060180D01*
X139485137Y-92011055D01*
X139064185Y-91927322D01*
X138935815Y-91927322D01*
X138514863Y-92011055D01*
X138396265Y-92060180D01*
X138039400Y-92298630D01*
X137948630Y-92389400D01*
X137710180Y-92746265D01*
X137661055Y-92864863D01*
X137629997Y-93021000D01*
X132245003Y-93021000D01*
X132213945Y-92864863D01*
X132164820Y-92746265D01*
X131926370Y-92389400D01*
X131835598Y-92298628D01*
X131478735Y-92060180D01*
X131360137Y-92011055D01*
X131204000Y-91979997D01*
X131204000Y-87480003D01*
X131360137Y-87448945D01*
X131478735Y-87399820D01*
X131718371Y-87239700D01*
X133919400Y-87239700D01*
X133919400Y-87470733D01*
X133973537Y-87601431D01*
X134073569Y-87701463D01*
X134204267Y-87755600D01*
X134485300Y-87755600D01*
X134574200Y-87666700D01*
X134574200Y-87150800D01*
X134675800Y-87150800D01*
X134675800Y-87666700D01*
X134764700Y-87755600D01*
X135045733Y-87755600D01*
X135176431Y-87701463D01*
X135250000Y-87627894D01*
X135323569Y-87701463D01*
X135454267Y-87755600D01*
X135735300Y-87755600D01*
X135824200Y-87666700D01*
X135824200Y-87150800D01*
X135925800Y-87150800D01*
X135925800Y-87666700D01*
X136014700Y-87755600D01*
X136295733Y-87755600D01*
X136426431Y-87701463D01*
X136526463Y-87601431D01*
X136580600Y-87470733D01*
X136580600Y-87239700D01*
X136491700Y-87150800D01*
X135925800Y-87150800D01*
X135824200Y-87150800D01*
X135258300Y-87150800D01*
X135250000Y-87159100D01*
X135241700Y-87150800D01*
X134675800Y-87150800D01*
X134574200Y-87150800D01*
X134008300Y-87150800D01*
X133919400Y-87239700D01*
X131718371Y-87239700D01*
X131835600Y-87161370D01*
X131926370Y-87070600D01*
X132164820Y-86713735D01*
X132213945Y-86595137D01*
X132297678Y-86174185D01*
X132297678Y-86045815D01*
X132213945Y-85624863D01*
X132164820Y-85506265D01*
X131926370Y-85149400D01*
X131835598Y-85058628D01*
X131478735Y-84820180D01*
X131360137Y-84771055D01*
X131204000Y-84739997D01*
X131204000Y-83284542D01*
X131336343Y-83604045D01*
X131688955Y-83956657D01*
X132149665Y-84147490D01*
X132648335Y-84147490D01*
X133109045Y-83956657D01*
X133461657Y-83604045D01*
X133652490Y-83143335D01*
X133652490Y-82644665D01*
X133499066Y-82274268D01*
X133720955Y-82496157D01*
X134100800Y-82653495D01*
X134100800Y-83156000D01*
X134125935Y-83282362D01*
X134197513Y-83389487D01*
X135391513Y-84583487D01*
X135498638Y-84655065D01*
X135547132Y-84664711D01*
X135471000Y-84848511D01*
X135471000Y-85108689D01*
X135502652Y-85185104D01*
X135494000Y-85228600D01*
X135494000Y-85547190D01*
X135425894Y-85560737D01*
X135341876Y-85616876D01*
X135285737Y-85700894D01*
X135266024Y-85800000D01*
X135266024Y-86400000D01*
X135285737Y-86499106D01*
X135300662Y-86521444D01*
X135250000Y-86572106D01*
X135199338Y-86521444D01*
X135214263Y-86499106D01*
X135233976Y-86400000D01*
X135233976Y-85800000D01*
X135214263Y-85700894D01*
X135158124Y-85616876D01*
X135074106Y-85560737D01*
X135006000Y-85547190D01*
X135006000Y-85350005D01*
X135006001Y-85350000D01*
X134976998Y-85204198D01*
X134894408Y-85080592D01*
X134394408Y-84580592D01*
X134270803Y-84498002D01*
X134125000Y-84469000D01*
X133668896Y-84469000D01*
X133495461Y-84295565D01*
X133255089Y-84196000D01*
X132994911Y-84196000D01*
X132754539Y-84295565D01*
X132570565Y-84479539D01*
X132471000Y-84719911D01*
X132471000Y-84980089D01*
X132570565Y-85220461D01*
X132754539Y-85404435D01*
X132994911Y-85504000D01*
X133255089Y-85504000D01*
X133495461Y-85404435D01*
X133668896Y-85231000D01*
X133967184Y-85231000D01*
X134244000Y-85507816D01*
X134244000Y-85547190D01*
X134175894Y-85560737D01*
X134091876Y-85616876D01*
X134035737Y-85700894D01*
X134016024Y-85800000D01*
X134016024Y-86400000D01*
X134035737Y-86499106D01*
X134050662Y-86521444D01*
X133973537Y-86598569D01*
X133919400Y-86729267D01*
X133919400Y-86960300D01*
X134008300Y-87049200D01*
X134574200Y-87049200D01*
X134574200Y-87029200D01*
X134675800Y-87029200D01*
X134675800Y-87049200D01*
X135241700Y-87049200D01*
X135250000Y-87040900D01*
X135258300Y-87049200D01*
X135824200Y-87049200D01*
X135824200Y-87029200D01*
X135925800Y-87029200D01*
X135925800Y-87049200D01*
X136491700Y-87049200D01*
X136580600Y-86960300D01*
X136580600Y-86729267D01*
X136526463Y-86598569D01*
X136449338Y-86521444D01*
X136464263Y-86499106D01*
X136483976Y-86400000D01*
X136483976Y-85800000D01*
X136464263Y-85700894D01*
X136408124Y-85616876D01*
X136364087Y-85587452D01*
X136495461Y-85533035D01*
X136679435Y-85349061D01*
X136779000Y-85108689D01*
X136779000Y-84848511D01*
X136709284Y-84680200D01*
X136986826Y-84680200D01*
X138486276Y-86179650D01*
X138469600Y-86219911D01*
X138469600Y-86480089D01*
X138569165Y-86720461D01*
X138753139Y-86904435D01*
X138993511Y-87004000D01*
X139253689Y-87004000D01*
X139494061Y-86904435D01*
X139678035Y-86720461D01*
X139777600Y-86480089D01*
X139777600Y-86219911D01*
X139678035Y-85979539D01*
X139494061Y-85795565D01*
X139253689Y-85696000D01*
X138993511Y-85696000D01*
X138953250Y-85712676D01*
X137357087Y-84116513D01*
X137249962Y-84044935D01*
X137123600Y-84019800D01*
X137020605Y-84019800D01*
X137173045Y-83956657D01*
X137525657Y-83604045D01*
X137716490Y-83143335D01*
X137716490Y-82644665D01*
X137563066Y-82274268D01*
X137784955Y-82496157D01*
X138245665Y-82686990D01*
X138744335Y-82686990D01*
X139205045Y-82496157D01*
X139426934Y-82274268D01*
X139273510Y-82644665D01*
X139273510Y-83143335D01*
X139464343Y-83604045D01*
X139816955Y-83956657D01*
X140196800Y-84113995D01*
X140196800Y-87561227D01*
X139738226Y-88019800D01*
X139446112Y-88019800D01*
X139429435Y-87979539D01*
X139245461Y-87795565D01*
X139005089Y-87696000D01*
X138744911Y-87696000D01*
X138504539Y-87795565D01*
X138320565Y-87979539D01*
X138221000Y-88219911D01*
X138221000Y-88480089D01*
X138320565Y-88720461D01*
X138504539Y-88904435D01*
X138744911Y-89004000D01*
X139005089Y-89004000D01*
X139245461Y-88904435D01*
X139429435Y-88720461D01*
X139446112Y-88680200D01*
X139875000Y-88680200D01*
X140001362Y-88655065D01*
X140108487Y-88583487D01*
X140760484Y-87931489D01*
X140760487Y-87931487D01*
X140832065Y-87824362D01*
X140857200Y-87698000D01*
X140857200Y-84113995D01*
X141237045Y-83956657D01*
X141589657Y-83604045D01*
X141780490Y-83143335D01*
X141780490Y-82644665D01*
X141674811Y-82389534D01*
X141681525Y-82382820D01*
X141788541Y-82580372D01*
X142286077Y-82787914D01*
X142825164Y-82789259D01*
X143323730Y-82584202D01*
X143329459Y-82580372D01*
X143436476Y-82382818D01*
X142559000Y-81505342D01*
X142544858Y-81519485D01*
X142473016Y-81447643D01*
X142487158Y-81433500D01*
X141609682Y-80556024D01*
X141412128Y-80663041D01*
X141204586Y-81160577D01*
X141203241Y-81699664D01*
X141271620Y-81865918D01*
X141237045Y-81831343D01*
X140776335Y-81640510D01*
X140277665Y-81640510D01*
X139816955Y-81831343D01*
X139595066Y-82053232D01*
X139748490Y-81682835D01*
X139748490Y-81184165D01*
X139557657Y-80723455D01*
X139263202Y-80429000D01*
X141711417Y-80429000D01*
X141681524Y-80484182D01*
X141681524Y-80484182D01*
G37*
X141681524Y-80484182D02*
X142559000Y-81361658D01*
X143436476Y-80484182D01*
X143406583Y-80429000D01*
X143796000Y-80429000D01*
X143796000Y-80878591D01*
X143709702Y-80668770D01*
X143705872Y-80663041D01*
X143508318Y-80556024D01*
X142630842Y-81433500D01*
X143508318Y-82310976D01*
X143705872Y-82203959D01*
X143796000Y-81987897D01*
X143796000Y-91979997D01*
X143639863Y-92011055D01*
X143521265Y-92060180D01*
X143164400Y-92298630D01*
X143073630Y-92389400D01*
X142835180Y-92746265D01*
X142786055Y-92864863D01*
X142754997Y-93021000D01*
X140370003Y-93021000D01*
X140338945Y-92864863D01*
X140289820Y-92746265D01*
X140051370Y-92389400D01*
X139960598Y-92298628D01*
X139603735Y-92060180D01*
X139485137Y-92011055D01*
X139064185Y-91927322D01*
X138935815Y-91927322D01*
X138514863Y-92011055D01*
X138396265Y-92060180D01*
X138039400Y-92298630D01*
X137948630Y-92389400D01*
X137710180Y-92746265D01*
X137661055Y-92864863D01*
X137629997Y-93021000D01*
X132245003Y-93021000D01*
X132213945Y-92864863D01*
X132164820Y-92746265D01*
X131926370Y-92389400D01*
X131835598Y-92298628D01*
X131478735Y-92060180D01*
X131360137Y-92011055D01*
X131204000Y-91979997D01*
X131204000Y-87480003D01*
X131360137Y-87448945D01*
X131478735Y-87399820D01*
X131718371Y-87239700D01*
X133919400Y-87239700D01*
X133919400Y-87470733D01*
X133973537Y-87601431D01*
X134073569Y-87701463D01*
X134204267Y-87755600D01*
X134485300Y-87755600D01*
X134574200Y-87666700D01*
X134574200Y-87150800D01*
X134675800Y-87150800D01*
X134675800Y-87666700D01*
X134764700Y-87755600D01*
X135045733Y-87755600D01*
X135176431Y-87701463D01*
X135250000Y-87627894D01*
X135323569Y-87701463D01*
X135454267Y-87755600D01*
X135735300Y-87755600D01*
X135824200Y-87666700D01*
X135824200Y-87150800D01*
X135925800Y-87150800D01*
X135925800Y-87666700D01*
X136014700Y-87755600D01*
X136295733Y-87755600D01*
X136426431Y-87701463D01*
X136526463Y-87601431D01*
X136580600Y-87470733D01*
X136580600Y-87239700D01*
X136491700Y-87150800D01*
X135925800Y-87150800D01*
X135824200Y-87150800D01*
X135258300Y-87150800D01*
X135250000Y-87159100D01*
X135241700Y-87150800D01*
X134675800Y-87150800D01*
X134574200Y-87150800D01*
X134008300Y-87150800D01*
X133919400Y-87239700D01*
X131718371Y-87239700D01*
X131835600Y-87161370D01*
X131926370Y-87070600D01*
X132164820Y-86713735D01*
X132213945Y-86595137D01*
X132297678Y-86174185D01*
X132297678Y-86045815D01*
X132213945Y-85624863D01*
X132164820Y-85506265D01*
X131926370Y-85149400D01*
X131835598Y-85058628D01*
X131478735Y-84820180D01*
X131360137Y-84771055D01*
X131204000Y-84739997D01*
X131204000Y-83284542D01*
X131336343Y-83604045D01*
X131688955Y-83956657D01*
X132149665Y-84147490D01*
X132648335Y-84147490D01*
X133109045Y-83956657D01*
X133461657Y-83604045D01*
X133652490Y-83143335D01*
X133652490Y-82644665D01*
X133499066Y-82274268D01*
X133720955Y-82496157D01*
X134100800Y-82653495D01*
X134100800Y-83156000D01*
X134125935Y-83282362D01*
X134197513Y-83389487D01*
X135391513Y-84583487D01*
X135498638Y-84655065D01*
X135547132Y-84664711D01*
X135471000Y-84848511D01*
X135471000Y-85108689D01*
X135502652Y-85185104D01*
X135494000Y-85228600D01*
X135494000Y-85547190D01*
X135425894Y-85560737D01*
X135341876Y-85616876D01*
X135285737Y-85700894D01*
X135266024Y-85800000D01*
X135266024Y-86400000D01*
X135285737Y-86499106D01*
X135300662Y-86521444D01*
X135250000Y-86572106D01*
X135199338Y-86521444D01*
X135214263Y-86499106D01*
X135233976Y-86400000D01*
X135233976Y-85800000D01*
X135214263Y-85700894D01*
X135158124Y-85616876D01*
X135074106Y-85560737D01*
X135006000Y-85547190D01*
X135006000Y-85350005D01*
X135006001Y-85350000D01*
X134976998Y-85204198D01*
X134894408Y-85080592D01*
X134394408Y-84580592D01*
X134270803Y-84498002D01*
X134125000Y-84469000D01*
X133668896Y-84469000D01*
X133495461Y-84295565D01*
X133255089Y-84196000D01*
X132994911Y-84196000D01*
X132754539Y-84295565D01*
X132570565Y-84479539D01*
X132471000Y-84719911D01*
X132471000Y-84980089D01*
X132570565Y-85220461D01*
X132754539Y-85404435D01*
X132994911Y-85504000D01*
X133255089Y-85504000D01*
X133495461Y-85404435D01*
X133668896Y-85231000D01*
X133967184Y-85231000D01*
X134244000Y-85507816D01*
X134244000Y-85547190D01*
X134175894Y-85560737D01*
X134091876Y-85616876D01*
X134035737Y-85700894D01*
X134016024Y-85800000D01*
X134016024Y-86400000D01*
X134035737Y-86499106D01*
X134050662Y-86521444D01*
X133973537Y-86598569D01*
X133919400Y-86729267D01*
X133919400Y-86960300D01*
X134008300Y-87049200D01*
X134574200Y-87049200D01*
X134574200Y-87029200D01*
X134675800Y-87029200D01*
X134675800Y-87049200D01*
X135241700Y-87049200D01*
X135250000Y-87040900D01*
X135258300Y-87049200D01*
X135824200Y-87049200D01*
X135824200Y-87029200D01*
X135925800Y-87029200D01*
X135925800Y-87049200D01*
X136491700Y-87049200D01*
X136580600Y-86960300D01*
X136580600Y-86729267D01*
X136526463Y-86598569D01*
X136449338Y-86521444D01*
X136464263Y-86499106D01*
X136483976Y-86400000D01*
X136483976Y-85800000D01*
X136464263Y-85700894D01*
X136408124Y-85616876D01*
X136364087Y-85587452D01*
X136495461Y-85533035D01*
X136679435Y-85349061D01*
X136779000Y-85108689D01*
X136779000Y-84848511D01*
X136709284Y-84680200D01*
X136986826Y-84680200D01*
X138486276Y-86179650D01*
X138469600Y-86219911D01*
X138469600Y-86480089D01*
X138569165Y-86720461D01*
X138753139Y-86904435D01*
X138993511Y-87004000D01*
X139253689Y-87004000D01*
X139494061Y-86904435D01*
X139678035Y-86720461D01*
X139777600Y-86480089D01*
X139777600Y-86219911D01*
X139678035Y-85979539D01*
X139494061Y-85795565D01*
X139253689Y-85696000D01*
X138993511Y-85696000D01*
X138953250Y-85712676D01*
X137357087Y-84116513D01*
X137249962Y-84044935D01*
X137123600Y-84019800D01*
X137020605Y-84019800D01*
X137173045Y-83956657D01*
X137525657Y-83604045D01*
X137716490Y-83143335D01*
X137716490Y-82644665D01*
X137563066Y-82274268D01*
X137784955Y-82496157D01*
X138245665Y-82686990D01*
X138744335Y-82686990D01*
X139205045Y-82496157D01*
X139426934Y-82274268D01*
X139273510Y-82644665D01*
X139273510Y-83143335D01*
X139464343Y-83604045D01*
X139816955Y-83956657D01*
X140196800Y-84113995D01*
X140196800Y-87561227D01*
X139738226Y-88019800D01*
X139446112Y-88019800D01*
X139429435Y-87979539D01*
X139245461Y-87795565D01*
X139005089Y-87696000D01*
X138744911Y-87696000D01*
X138504539Y-87795565D01*
X138320565Y-87979539D01*
X138221000Y-88219911D01*
X138221000Y-88480089D01*
X138320565Y-88720461D01*
X138504539Y-88904435D01*
X138744911Y-89004000D01*
X139005089Y-89004000D01*
X139245461Y-88904435D01*
X139429435Y-88720461D01*
X139446112Y-88680200D01*
X139875000Y-88680200D01*
X140001362Y-88655065D01*
X140108487Y-88583487D01*
X140760484Y-87931489D01*
X140760487Y-87931487D01*
X140832065Y-87824362D01*
X140857200Y-87698000D01*
X140857200Y-84113995D01*
X141237045Y-83956657D01*
X141589657Y-83604045D01*
X141780490Y-83143335D01*
X141780490Y-82644665D01*
X141674811Y-82389534D01*
X141681525Y-82382820D01*
X141788541Y-82580372D01*
X142286077Y-82787914D01*
X142825164Y-82789259D01*
X143323730Y-82584202D01*
X143329459Y-82580372D01*
X143436476Y-82382818D01*
X142559000Y-81505342D01*
X142544858Y-81519485D01*
X142473016Y-81447643D01*
X142487158Y-81433500D01*
X141609682Y-80556024D01*
X141412128Y-80663041D01*
X141204586Y-81160577D01*
X141203241Y-81699664D01*
X141271620Y-81865918D01*
X141237045Y-81831343D01*
X140776335Y-81640510D01*
X140277665Y-81640510D01*
X139816955Y-81831343D01*
X139595066Y-82053232D01*
X139748490Y-81682835D01*
X139748490Y-81184165D01*
X139557657Y-80723455D01*
X139263202Y-80429000D01*
X141711417Y-80429000D01*
X141681524Y-80484182D01*
M02*
