G04 #@! TF.GenerationSoftware,KiCad,Pcbnew,(2018-01-21 revision 6b9866de8)-makepkg*
G04 #@! TF.CreationDate,2018-10-15T22:59:35+02:00*
G04 #@! TF.ProjectId,A1339_square board,41313333395F73717561726520626F61,rev?*
G04 #@! TF.SameCoordinates,Original*
G04 #@! TF.FileFunction,Legend,Bot*
G04 #@! TF.FilePolarity,Positive*
%FSLAX46Y46*%
G04 Gerber Fmt 4.6, Leading zero omitted, Abs format (unit mm)*
G04 Created by KiCad (PCBNEW (2018-01-21 revision 6b9866de8)-makepkg) date 10/15/18 22:59:35*
%MOMM*%
%LPD*%
G01*
G04 APERTURE LIST*
%ADD10C,0.150000*%
G04 APERTURE END LIST*
D10*
X133482142Y-86433333D02*
X133529761Y-86385714D01*
X133577380Y-86242857D01*
X133577380Y-86147619D01*
X133529761Y-86004761D01*
X133434523Y-85909523D01*
X133339285Y-85861904D01*
X133148809Y-85814285D01*
X133005952Y-85814285D01*
X132815476Y-85861904D01*
X132720238Y-85909523D01*
X132625000Y-86004761D01*
X132577380Y-86147619D01*
X132577380Y-86242857D01*
X132625000Y-86385714D01*
X132672619Y-86433333D01*
X133577380Y-87385714D02*
X133577380Y-86814285D01*
X133577380Y-87100000D02*
X132577380Y-87100000D01*
X132720238Y-87004761D01*
X132815476Y-86909523D01*
X132863095Y-86814285D01*
X137632142Y-86433333D02*
X137679761Y-86385714D01*
X137727380Y-86242857D01*
X137727380Y-86147619D01*
X137679761Y-86004761D01*
X137584523Y-85909523D01*
X137489285Y-85861904D01*
X137298809Y-85814285D01*
X137155952Y-85814285D01*
X136965476Y-85861904D01*
X136870238Y-85909523D01*
X136775000Y-86004761D01*
X136727380Y-86147619D01*
X136727380Y-86242857D01*
X136775000Y-86385714D01*
X136822619Y-86433333D01*
X136822619Y-86814285D02*
X136775000Y-86861904D01*
X136727380Y-86957142D01*
X136727380Y-87195238D01*
X136775000Y-87290476D01*
X136822619Y-87338095D01*
X136917857Y-87385714D01*
X137013095Y-87385714D01*
X137155952Y-87338095D01*
X137727380Y-86766666D01*
X137727380Y-87385714D01*
X132922619Y-89290476D02*
X132922619Y-89766666D01*
X132446428Y-89814285D01*
X132494047Y-89766666D01*
X132541666Y-89671428D01*
X132541666Y-89433333D01*
X132494047Y-89338095D01*
X132446428Y-89290476D01*
X132351190Y-89242857D01*
X132113095Y-89242857D01*
X132017857Y-89290476D01*
X131970238Y-89338095D01*
X131922619Y-89433333D01*
X131922619Y-89671428D01*
X131970238Y-89766666D01*
X132017857Y-89814285D01*
X132922619Y-88957142D02*
X131922619Y-88623809D01*
X132922619Y-88290476D01*
X133978619Y-91421428D02*
X134978619Y-91421428D01*
X134264333Y-91088095D01*
X134978619Y-90754761D01*
X133978619Y-90754761D01*
X133978619Y-90278571D02*
X134978619Y-90278571D01*
X134026238Y-89850000D02*
X133978619Y-89707142D01*
X133978619Y-89469047D01*
X134026238Y-89373809D01*
X134073857Y-89326190D01*
X134169095Y-89278571D01*
X134264333Y-89278571D01*
X134359571Y-89326190D01*
X134407190Y-89373809D01*
X134454809Y-89469047D01*
X134502428Y-89659523D01*
X134550047Y-89754761D01*
X134597666Y-89802380D01*
X134692904Y-89850000D01*
X134788142Y-89850000D01*
X134883380Y-89802380D01*
X134931000Y-89754761D01*
X134978619Y-89659523D01*
X134978619Y-89421428D01*
X134931000Y-89278571D01*
X134978619Y-88659523D02*
X134978619Y-88469047D01*
X134931000Y-88373809D01*
X134835761Y-88278571D01*
X134645285Y-88230952D01*
X134311952Y-88230952D01*
X134121476Y-88278571D01*
X134026238Y-88373809D01*
X133978619Y-88469047D01*
X133978619Y-88659523D01*
X134026238Y-88754761D01*
X134121476Y-88850000D01*
X134311952Y-88897619D01*
X134645285Y-88897619D01*
X134835761Y-88850000D01*
X134931000Y-88754761D01*
X134978619Y-88659523D01*
X136827380Y-88778571D02*
X135827380Y-88778571D01*
X136541666Y-89111904D01*
X135827380Y-89445238D01*
X136827380Y-89445238D01*
X135827380Y-90111904D02*
X135827380Y-90302380D01*
X135875000Y-90397619D01*
X135970238Y-90492857D01*
X136160714Y-90540476D01*
X136494047Y-90540476D01*
X136684523Y-90492857D01*
X136779761Y-90397619D01*
X136827380Y-90302380D01*
X136827380Y-90111904D01*
X136779761Y-90016666D01*
X136684523Y-89921428D01*
X136494047Y-89873809D01*
X136160714Y-89873809D01*
X135970238Y-89921428D01*
X135875000Y-90016666D01*
X135827380Y-90111904D01*
X136779761Y-90921428D02*
X136827380Y-91064285D01*
X136827380Y-91302380D01*
X136779761Y-91397619D01*
X136732142Y-91445238D01*
X136636904Y-91492857D01*
X136541666Y-91492857D01*
X136446428Y-91445238D01*
X136398809Y-91397619D01*
X136351190Y-91302380D01*
X136303571Y-91111904D01*
X136255952Y-91016666D01*
X136208333Y-90969047D01*
X136113095Y-90921428D01*
X136017857Y-90921428D01*
X135922619Y-90969047D01*
X135875000Y-91016666D01*
X135827380Y-91111904D01*
X135827380Y-91350000D01*
X135875000Y-91492857D01*
X136827380Y-91921428D02*
X135827380Y-91921428D01*
X138090238Y-91635714D02*
X138042619Y-91492857D01*
X138042619Y-91254761D01*
X138090238Y-91159523D01*
X138137857Y-91111904D01*
X138233095Y-91064285D01*
X138328333Y-91064285D01*
X138423571Y-91111904D01*
X138471190Y-91159523D01*
X138518809Y-91254761D01*
X138566428Y-91445238D01*
X138614047Y-91540476D01*
X138661666Y-91588095D01*
X138756904Y-91635714D01*
X138852142Y-91635714D01*
X138947380Y-91588095D01*
X138995000Y-91540476D01*
X139042619Y-91445238D01*
X139042619Y-91207142D01*
X138995000Y-91064285D01*
X138137857Y-90064285D02*
X138090238Y-90111904D01*
X138042619Y-90254761D01*
X138042619Y-90350000D01*
X138090238Y-90492857D01*
X138185476Y-90588095D01*
X138280714Y-90635714D01*
X138471190Y-90683333D01*
X138614047Y-90683333D01*
X138804523Y-90635714D01*
X138899761Y-90588095D01*
X138995000Y-90492857D01*
X139042619Y-90350000D01*
X139042619Y-90254761D01*
X138995000Y-90111904D01*
X138947380Y-90064285D01*
X138042619Y-89635714D02*
X139042619Y-89635714D01*
X138042619Y-89064285D02*
X138614047Y-89492857D01*
X139042619Y-89064285D02*
X138471190Y-89635714D01*
X139612000Y-89300684D02*
X139612000Y-90123809D01*
X140884142Y-89933333D02*
X140931761Y-89885714D01*
X140979380Y-89742857D01*
X140979380Y-89647619D01*
X140931761Y-89504761D01*
X140836523Y-89409523D01*
X140741285Y-89361904D01*
X140550809Y-89314285D01*
X140407952Y-89314285D01*
X140217476Y-89361904D01*
X140122238Y-89409523D01*
X140027000Y-89504761D01*
X139979380Y-89647619D01*
X139979380Y-89742857D01*
X140027000Y-89885714D01*
X140074619Y-89933333D01*
X139612000Y-90123809D02*
X139612000Y-91076190D01*
X140931761Y-90314285D02*
X140979380Y-90457142D01*
X140979380Y-90695238D01*
X140931761Y-90790476D01*
X140884142Y-90838095D01*
X140788904Y-90885714D01*
X140693666Y-90885714D01*
X140598428Y-90838095D01*
X140550809Y-90790476D01*
X140503190Y-90695238D01*
X140455571Y-90504761D01*
X140407952Y-90409523D01*
X140360333Y-90361904D01*
X140265095Y-90314285D01*
X140169857Y-90314285D01*
X140074619Y-90361904D01*
X140027000Y-90409523D01*
X139979380Y-90504761D01*
X139979380Y-90742857D01*
X140027000Y-90885714D01*
X143059000Y-90361904D02*
X143106619Y-90457142D01*
X143106619Y-90600000D01*
X143059000Y-90742857D01*
X142963761Y-90838095D01*
X142868523Y-90885714D01*
X142678047Y-90933333D01*
X142535190Y-90933333D01*
X142344714Y-90885714D01*
X142249476Y-90838095D01*
X142154238Y-90742857D01*
X142106619Y-90600000D01*
X142106619Y-90504761D01*
X142154238Y-90361904D01*
X142201857Y-90314285D01*
X142535190Y-90314285D01*
X142535190Y-90504761D01*
X142106619Y-89885714D02*
X143106619Y-89885714D01*
X142106619Y-89314285D01*
X143106619Y-89314285D01*
X142106619Y-88838095D02*
X143106619Y-88838095D01*
X143106619Y-88600000D01*
X143059000Y-88457142D01*
X142963761Y-88361904D01*
X142868523Y-88314285D01*
X142678047Y-88266666D01*
X142535190Y-88266666D01*
X142344714Y-88314285D01*
X142249476Y-88361904D01*
X142154238Y-88457142D01*
X142106619Y-88600000D01*
X142106619Y-88838095D01*
M02*
