G04 #@! TF.GenerationSoftware,KiCad,Pcbnew,(2018-01-21 revision 6b9866de8)-makepkg*
G04 #@! TF.CreationDate,2018-10-15T22:55:56+02:00*
G04 #@! TF.ProjectId,A1339_long_board,41313333395F6C6F6E675F626F617264,rev?*
G04 #@! TF.SameCoordinates,Original*
G04 #@! TF.FileFunction,Legend,Bot*
G04 #@! TF.FilePolarity,Positive*
%FSLAX46Y46*%
G04 Gerber Fmt 4.6, Leading zero omitted, Abs format (unit mm)*
G04 Created by KiCad (PCBNEW (2018-01-21 revision 6b9866de8)-makepkg) date 10/15/18 22:55:56*
%MOMM*%
%LPD*%
G01*
G04 APERTURE LIST*
%ADD10C,0.150000*%
G04 APERTURE END LIST*
D10*
X122775000Y-82800000D02*
X123875000Y-81700000D01*
X126775000Y-82800000D02*
X126075000Y-82100000D01*
X124875000Y-89000000D02*
X124875000Y-89100000D01*
X127675000Y-87400000D02*
X127675000Y-87700000D01*
X124875000Y-86600000D02*
X124875000Y-87400000D01*
X121875000Y-86800000D02*
X121875000Y-87500000D01*
X127675000Y-91400000D02*
X127675000Y-93400000D01*
X121875000Y-91400000D02*
X121875000Y-93400000D01*
X126775000Y-78800000D02*
X125275000Y-80300000D01*
X122775000Y-78800000D02*
X124275000Y-80300000D01*
X125091666Y-84007142D02*
X125139285Y-84054761D01*
X125282142Y-84102380D01*
X125377380Y-84102380D01*
X125520238Y-84054761D01*
X125615476Y-83959523D01*
X125663095Y-83864285D01*
X125710714Y-83673809D01*
X125710714Y-83530952D01*
X125663095Y-83340476D01*
X125615476Y-83245238D01*
X125520238Y-83150000D01*
X125377380Y-83102380D01*
X125282142Y-83102380D01*
X125139285Y-83150000D01*
X125091666Y-83197619D01*
X124139285Y-84102380D02*
X124710714Y-84102380D01*
X124425000Y-84102380D02*
X124425000Y-83102380D01*
X124520238Y-83245238D01*
X124615476Y-83340476D01*
X124710714Y-83388095D01*
X127541666Y-81257142D02*
X127589285Y-81304761D01*
X127732142Y-81352380D01*
X127827380Y-81352380D01*
X127970238Y-81304761D01*
X128065476Y-81209523D01*
X128113095Y-81114285D01*
X128160714Y-80923809D01*
X128160714Y-80780952D01*
X128113095Y-80590476D01*
X128065476Y-80495238D01*
X127970238Y-80400000D01*
X127827380Y-80352380D01*
X127732142Y-80352380D01*
X127589285Y-80400000D01*
X127541666Y-80447619D01*
X127160714Y-80447619D02*
X127113095Y-80400000D01*
X127017857Y-80352380D01*
X126779761Y-80352380D01*
X126684523Y-80400000D01*
X126636904Y-80447619D01*
X126589285Y-80542857D01*
X126589285Y-80638095D01*
X126636904Y-80780952D01*
X127208333Y-81352380D01*
X126589285Y-81352380D01*
X121527380Y-85509523D02*
X121527380Y-85033333D01*
X122003571Y-84985714D01*
X121955952Y-85033333D01*
X121908333Y-85128571D01*
X121908333Y-85366666D01*
X121955952Y-85461904D01*
X122003571Y-85509523D01*
X122098809Y-85557142D01*
X122336904Y-85557142D01*
X122432142Y-85509523D01*
X122479761Y-85461904D01*
X122527380Y-85366666D01*
X122527380Y-85128571D01*
X122479761Y-85033333D01*
X122432142Y-84985714D01*
X121527380Y-85842857D02*
X122527380Y-86176190D01*
X121527380Y-86509523D01*
X122327380Y-87828571D02*
X121327380Y-87828571D01*
X122041666Y-88161904D01*
X121327380Y-88495238D01*
X122327380Y-88495238D01*
X122327380Y-88971428D02*
X121327380Y-88971428D01*
X122279761Y-89400000D02*
X122327380Y-89542857D01*
X122327380Y-89780952D01*
X122279761Y-89876190D01*
X122232142Y-89923809D01*
X122136904Y-89971428D01*
X122041666Y-89971428D01*
X121946428Y-89923809D01*
X121898809Y-89876190D01*
X121851190Y-89780952D01*
X121803571Y-89590476D01*
X121755952Y-89495238D01*
X121708333Y-89447619D01*
X121613095Y-89400000D01*
X121517857Y-89400000D01*
X121422619Y-89447619D01*
X121375000Y-89495238D01*
X121327380Y-89590476D01*
X121327380Y-89828571D01*
X121375000Y-89971428D01*
X121327380Y-90590476D02*
X121327380Y-90780952D01*
X121375000Y-90876190D01*
X121470238Y-90971428D01*
X121660714Y-91019047D01*
X121994047Y-91019047D01*
X122184523Y-90971428D01*
X122279761Y-90876190D01*
X122327380Y-90780952D01*
X122327380Y-90590476D01*
X122279761Y-90495238D01*
X122184523Y-90400000D01*
X121994047Y-90352380D01*
X121660714Y-90352380D01*
X121470238Y-90400000D01*
X121375000Y-90495238D01*
X121327380Y-90590476D01*
X126346428Y-88752380D02*
X126346428Y-87752380D01*
X126013095Y-88466666D01*
X125679761Y-87752380D01*
X125679761Y-88752380D01*
X125013095Y-87752380D02*
X124822619Y-87752380D01*
X124727380Y-87800000D01*
X124632142Y-87895238D01*
X124584523Y-88085714D01*
X124584523Y-88419047D01*
X124632142Y-88609523D01*
X124727380Y-88704761D01*
X124822619Y-88752380D01*
X125013095Y-88752380D01*
X125108333Y-88704761D01*
X125203571Y-88609523D01*
X125251190Y-88419047D01*
X125251190Y-88085714D01*
X125203571Y-87895238D01*
X125108333Y-87800000D01*
X125013095Y-87752380D01*
X124203571Y-88704761D02*
X124060714Y-88752380D01*
X123822619Y-88752380D01*
X123727380Y-88704761D01*
X123679761Y-88657142D01*
X123632142Y-88561904D01*
X123632142Y-88466666D01*
X123679761Y-88371428D01*
X123727380Y-88323809D01*
X123822619Y-88276190D01*
X124013095Y-88228571D01*
X124108333Y-88180952D01*
X124155952Y-88133333D01*
X124203571Y-88038095D01*
X124203571Y-87942857D01*
X124155952Y-87847619D01*
X124108333Y-87800000D01*
X124013095Y-87752380D01*
X123775000Y-87752380D01*
X123632142Y-87800000D01*
X123203571Y-88752380D02*
X123203571Y-87752380D01*
X128079761Y-87914285D02*
X128127380Y-88057142D01*
X128127380Y-88295238D01*
X128079761Y-88390476D01*
X128032142Y-88438095D01*
X127936904Y-88485714D01*
X127841666Y-88485714D01*
X127746428Y-88438095D01*
X127698809Y-88390476D01*
X127651190Y-88295238D01*
X127603571Y-88104761D01*
X127555952Y-88009523D01*
X127508333Y-87961904D01*
X127413095Y-87914285D01*
X127317857Y-87914285D01*
X127222619Y-87961904D01*
X127175000Y-88009523D01*
X127127380Y-88104761D01*
X127127380Y-88342857D01*
X127175000Y-88485714D01*
X128032142Y-89485714D02*
X128079761Y-89438095D01*
X128127380Y-89295238D01*
X128127380Y-89200000D01*
X128079761Y-89057142D01*
X127984523Y-88961904D01*
X127889285Y-88914285D01*
X127698809Y-88866666D01*
X127555952Y-88866666D01*
X127365476Y-88914285D01*
X127270238Y-88961904D01*
X127175000Y-89057142D01*
X127127380Y-89200000D01*
X127127380Y-89295238D01*
X127175000Y-89438095D01*
X127222619Y-89485714D01*
X128127380Y-89914285D02*
X127127380Y-89914285D01*
X128127380Y-90485714D02*
X127555952Y-90057142D01*
X127127380Y-90485714D02*
X127698809Y-89914285D01*
X124941666Y-86157142D02*
X124989285Y-86204761D01*
X125132142Y-86252380D01*
X125227380Y-86252380D01*
X125370238Y-86204761D01*
X125465476Y-86109523D01*
X125513095Y-86014285D01*
X125560714Y-85823809D01*
X125560714Y-85680952D01*
X125513095Y-85490476D01*
X125465476Y-85395238D01*
X125370238Y-85300000D01*
X125227380Y-85252380D01*
X125132142Y-85252380D01*
X124989285Y-85300000D01*
X124941666Y-85347619D01*
X124560714Y-86204761D02*
X124417857Y-86252380D01*
X124179761Y-86252380D01*
X124084523Y-86204761D01*
X124036904Y-86157142D01*
X123989285Y-86061904D01*
X123989285Y-85966666D01*
X124036904Y-85871428D01*
X124084523Y-85823809D01*
X124179761Y-85776190D01*
X124370238Y-85728571D01*
X124465476Y-85680952D01*
X124513095Y-85633333D01*
X124560714Y-85538095D01*
X124560714Y-85442857D01*
X124513095Y-85347619D01*
X124465476Y-85300000D01*
X124370238Y-85252380D01*
X124132142Y-85252380D01*
X123989285Y-85300000D01*
X127175000Y-85038095D02*
X127127380Y-84942857D01*
X127127380Y-84800000D01*
X127175000Y-84657142D01*
X127270238Y-84561904D01*
X127365476Y-84514285D01*
X127555952Y-84466666D01*
X127698809Y-84466666D01*
X127889285Y-84514285D01*
X127984523Y-84561904D01*
X128079761Y-84657142D01*
X128127380Y-84800000D01*
X128127380Y-84895238D01*
X128079761Y-85038095D01*
X128032142Y-85085714D01*
X127698809Y-85085714D01*
X127698809Y-84895238D01*
X128127380Y-85514285D02*
X127127380Y-85514285D01*
X128127380Y-86085714D01*
X127127380Y-86085714D01*
X128127380Y-86561904D02*
X127127380Y-86561904D01*
X127127380Y-86800000D01*
X127175000Y-86942857D01*
X127270238Y-87038095D01*
X127365476Y-87085714D01*
X127555952Y-87133333D01*
X127698809Y-87133333D01*
X127889285Y-87085714D01*
X127984523Y-87038095D01*
X128079761Y-86942857D01*
X128127380Y-86800000D01*
X128127380Y-86561904D01*
M02*
