G04 #@! TF.GenerationSoftware,KiCad,Pcbnew,(2018-01-21 revision 6b9866de8)-makepkg*
G04 #@! TF.CreationDate,2018-10-15T22:55:56+02:00*
G04 #@! TF.ProjectId,A1339_long_board,41313333395F6C6F6E675F626F617264,rev?*
G04 #@! TF.SameCoordinates,Original*
G04 #@! TF.FileFunction,Soldermask,Bot*
G04 #@! TF.FilePolarity,Negative*
%FSLAX46Y46*%
G04 Gerber Fmt 4.6, Leading zero omitted, Abs format (unit mm)*
G04 Created by KiCad (PCBNEW (2018-01-21 revision 6b9866de8)-makepkg) date 10/15/18 22:55:56*
%MOMM*%
%LPD*%
G01*
G04 APERTURE LIST*
%ADD10C,0.010000*%
%ADD11R,1.000000X1.100000*%
%ADD12C,4.200000*%
%ADD13C,2.398980*%
G04 APERTURE END LIST*
D10*
G36*
X125594536Y-77087437D02*
X125571275Y-77088815D01*
X125550263Y-77091500D01*
X125536374Y-77094046D01*
X125472617Y-77111768D01*
X125413477Y-77138078D01*
X125359795Y-77172525D01*
X125313480Y-77213551D01*
X125273879Y-77261609D01*
X125242050Y-77315013D01*
X125217989Y-77372600D01*
X125201692Y-77433207D01*
X125193155Y-77495670D01*
X125192372Y-77558826D01*
X125199339Y-77621511D01*
X125214051Y-77682562D01*
X125236505Y-77740815D01*
X125266694Y-77795106D01*
X125304615Y-77844273D01*
X125316020Y-77856357D01*
X125365156Y-77899210D01*
X125419418Y-77933308D01*
X125478562Y-77958521D01*
X125535842Y-77973523D01*
X125560818Y-77976900D01*
X125592283Y-77979082D01*
X125627366Y-77980076D01*
X125663200Y-77979885D01*
X125696915Y-77978515D01*
X125725644Y-77975970D01*
X125742740Y-77973174D01*
X125806684Y-77954532D01*
X125864301Y-77928156D01*
X125916210Y-77893729D01*
X125944168Y-77869739D01*
X125988686Y-77821872D01*
X126024281Y-77769956D01*
X126051139Y-77713532D01*
X126069449Y-77652142D01*
X126079397Y-77585327D01*
X126081460Y-77534324D01*
X125909864Y-77534324D01*
X125908827Y-77571399D01*
X125905801Y-77605373D01*
X125901173Y-77631435D01*
X125883977Y-77682627D01*
X125859296Y-77727780D01*
X125827719Y-77766260D01*
X125789833Y-77797433D01*
X125746228Y-77820663D01*
X125716369Y-77830856D01*
X125693828Y-77834985D01*
X125664946Y-77837351D01*
X125633118Y-77837966D01*
X125601741Y-77836839D01*
X125574213Y-77833981D01*
X125556973Y-77830375D01*
X125510038Y-77811635D01*
X125468519Y-77784953D01*
X125433423Y-77751183D01*
X125405758Y-77711182D01*
X125397632Y-77695029D01*
X125385675Y-77666918D01*
X125377162Y-77641407D01*
X125371565Y-77615686D01*
X125368358Y-77586944D01*
X125367013Y-77552371D01*
X125366874Y-77531140D01*
X125367162Y-77500068D01*
X125368170Y-77476427D01*
X125370192Y-77457496D01*
X125373526Y-77440555D01*
X125378468Y-77422883D01*
X125378766Y-77421920D01*
X125398994Y-77370186D01*
X125425120Y-77326624D01*
X125457432Y-77290937D01*
X125496215Y-77262827D01*
X125541757Y-77241997D01*
X125556973Y-77237066D01*
X125580348Y-77232419D01*
X125610159Y-77229752D01*
X125642874Y-77229083D01*
X125674960Y-77230430D01*
X125702884Y-77233812D01*
X125714135Y-77236260D01*
X125762025Y-77253860D01*
X125803694Y-77279466D01*
X125839058Y-77312991D01*
X125868035Y-77354344D01*
X125890542Y-77403438D01*
X125901062Y-77437160D01*
X125905980Y-77463938D01*
X125908914Y-77497415D01*
X125909864Y-77534324D01*
X126081460Y-77534324D01*
X126081487Y-77533680D01*
X126077479Y-77462883D01*
X126065309Y-77397884D01*
X126044755Y-77338147D01*
X126015599Y-77283133D01*
X125977620Y-77232305D01*
X125943448Y-77196829D01*
X125918206Y-77174577D01*
X125893903Y-77156930D01*
X125866201Y-77140902D01*
X125850777Y-77133083D01*
X125819194Y-77118190D01*
X125791905Y-77107135D01*
X125766186Y-77099281D01*
X125739310Y-77093991D01*
X125708552Y-77090628D01*
X125671187Y-77088554D01*
X125658294Y-77088088D01*
X125622668Y-77087237D01*
X125594536Y-77087437D01*
X125594536Y-77087437D01*
G37*
X125594536Y-77087437D02*
X125571275Y-77088815D01*
X125550263Y-77091500D01*
X125536374Y-77094046D01*
X125472617Y-77111768D01*
X125413477Y-77138078D01*
X125359795Y-77172525D01*
X125313480Y-77213551D01*
X125273879Y-77261609D01*
X125242050Y-77315013D01*
X125217989Y-77372600D01*
X125201692Y-77433207D01*
X125193155Y-77495670D01*
X125192372Y-77558826D01*
X125199339Y-77621511D01*
X125214051Y-77682562D01*
X125236505Y-77740815D01*
X125266694Y-77795106D01*
X125304615Y-77844273D01*
X125316020Y-77856357D01*
X125365156Y-77899210D01*
X125419418Y-77933308D01*
X125478562Y-77958521D01*
X125535842Y-77973523D01*
X125560818Y-77976900D01*
X125592283Y-77979082D01*
X125627366Y-77980076D01*
X125663200Y-77979885D01*
X125696915Y-77978515D01*
X125725644Y-77975970D01*
X125742740Y-77973174D01*
X125806684Y-77954532D01*
X125864301Y-77928156D01*
X125916210Y-77893729D01*
X125944168Y-77869739D01*
X125988686Y-77821872D01*
X126024281Y-77769956D01*
X126051139Y-77713532D01*
X126069449Y-77652142D01*
X126079397Y-77585327D01*
X126081460Y-77534324D01*
X125909864Y-77534324D01*
X125908827Y-77571399D01*
X125905801Y-77605373D01*
X125901173Y-77631435D01*
X125883977Y-77682627D01*
X125859296Y-77727780D01*
X125827719Y-77766260D01*
X125789833Y-77797433D01*
X125746228Y-77820663D01*
X125716369Y-77830856D01*
X125693828Y-77834985D01*
X125664946Y-77837351D01*
X125633118Y-77837966D01*
X125601741Y-77836839D01*
X125574213Y-77833981D01*
X125556973Y-77830375D01*
X125510038Y-77811635D01*
X125468519Y-77784953D01*
X125433423Y-77751183D01*
X125405758Y-77711182D01*
X125397632Y-77695029D01*
X125385675Y-77666918D01*
X125377162Y-77641407D01*
X125371565Y-77615686D01*
X125368358Y-77586944D01*
X125367013Y-77552371D01*
X125366874Y-77531140D01*
X125367162Y-77500068D01*
X125368170Y-77476427D01*
X125370192Y-77457496D01*
X125373526Y-77440555D01*
X125378468Y-77422883D01*
X125378766Y-77421920D01*
X125398994Y-77370186D01*
X125425120Y-77326624D01*
X125457432Y-77290937D01*
X125496215Y-77262827D01*
X125541757Y-77241997D01*
X125556973Y-77237066D01*
X125580348Y-77232419D01*
X125610159Y-77229752D01*
X125642874Y-77229083D01*
X125674960Y-77230430D01*
X125702884Y-77233812D01*
X125714135Y-77236260D01*
X125762025Y-77253860D01*
X125803694Y-77279466D01*
X125839058Y-77312991D01*
X125868035Y-77354344D01*
X125890542Y-77403438D01*
X125901062Y-77437160D01*
X125905980Y-77463938D01*
X125908914Y-77497415D01*
X125909864Y-77534324D01*
X126081460Y-77534324D01*
X126081487Y-77533680D01*
X126077479Y-77462883D01*
X126065309Y-77397884D01*
X126044755Y-77338147D01*
X126015599Y-77283133D01*
X125977620Y-77232305D01*
X125943448Y-77196829D01*
X125918206Y-77174577D01*
X125893903Y-77156930D01*
X125866201Y-77140902D01*
X125850777Y-77133083D01*
X125819194Y-77118190D01*
X125791905Y-77107135D01*
X125766186Y-77099281D01*
X125739310Y-77093991D01*
X125708552Y-77090628D01*
X125671187Y-77088554D01*
X125658294Y-77088088D01*
X125622668Y-77087237D01*
X125594536Y-77087437D01*
G36*
X123841936Y-77087437D02*
X123818675Y-77088815D01*
X123797663Y-77091500D01*
X123783774Y-77094046D01*
X123720017Y-77111768D01*
X123660877Y-77138078D01*
X123607195Y-77172525D01*
X123560880Y-77213551D01*
X123521279Y-77261609D01*
X123489450Y-77315013D01*
X123465389Y-77372600D01*
X123449092Y-77433207D01*
X123440555Y-77495670D01*
X123439772Y-77558826D01*
X123446739Y-77621511D01*
X123461451Y-77682562D01*
X123483905Y-77740815D01*
X123514094Y-77795106D01*
X123552015Y-77844273D01*
X123563420Y-77856357D01*
X123612556Y-77899210D01*
X123666818Y-77933308D01*
X123725962Y-77958521D01*
X123783242Y-77973523D01*
X123808218Y-77976900D01*
X123839683Y-77979082D01*
X123874766Y-77980076D01*
X123910600Y-77979885D01*
X123944315Y-77978515D01*
X123973044Y-77975970D01*
X123990140Y-77973174D01*
X124054084Y-77954532D01*
X124111701Y-77928156D01*
X124163610Y-77893729D01*
X124191568Y-77869739D01*
X124236086Y-77821872D01*
X124271681Y-77769956D01*
X124298539Y-77713532D01*
X124316849Y-77652142D01*
X124326797Y-77585327D01*
X124328860Y-77534324D01*
X124157264Y-77534324D01*
X124156227Y-77571399D01*
X124153201Y-77605373D01*
X124148573Y-77631435D01*
X124131377Y-77682627D01*
X124106696Y-77727780D01*
X124075119Y-77766260D01*
X124037233Y-77797433D01*
X123993628Y-77820663D01*
X123963769Y-77830856D01*
X123941228Y-77834985D01*
X123912346Y-77837351D01*
X123880518Y-77837966D01*
X123849141Y-77836839D01*
X123821613Y-77833981D01*
X123804373Y-77830375D01*
X123757438Y-77811635D01*
X123715919Y-77784953D01*
X123680823Y-77751183D01*
X123653158Y-77711182D01*
X123645032Y-77695029D01*
X123633075Y-77666918D01*
X123624562Y-77641407D01*
X123618965Y-77615686D01*
X123615758Y-77586944D01*
X123614413Y-77552371D01*
X123614274Y-77531140D01*
X123614562Y-77500068D01*
X123615570Y-77476427D01*
X123617592Y-77457496D01*
X123620926Y-77440555D01*
X123625868Y-77422883D01*
X123626166Y-77421920D01*
X123646394Y-77370186D01*
X123672520Y-77326624D01*
X123704832Y-77290937D01*
X123743615Y-77262827D01*
X123789157Y-77241997D01*
X123804373Y-77237066D01*
X123827748Y-77232419D01*
X123857559Y-77229752D01*
X123890274Y-77229083D01*
X123922360Y-77230430D01*
X123950284Y-77233812D01*
X123961535Y-77236260D01*
X124009425Y-77253860D01*
X124051094Y-77279466D01*
X124086458Y-77312991D01*
X124115435Y-77354344D01*
X124137942Y-77403438D01*
X124148462Y-77437160D01*
X124153380Y-77463938D01*
X124156314Y-77497415D01*
X124157264Y-77534324D01*
X124328860Y-77534324D01*
X124328887Y-77533680D01*
X124324879Y-77462883D01*
X124312709Y-77397884D01*
X124292155Y-77338147D01*
X124262999Y-77283133D01*
X124225020Y-77232305D01*
X124190848Y-77196829D01*
X124165606Y-77174577D01*
X124141303Y-77156930D01*
X124113601Y-77140902D01*
X124098177Y-77133083D01*
X124066594Y-77118190D01*
X124039305Y-77107135D01*
X124013586Y-77099281D01*
X123986710Y-77093991D01*
X123955952Y-77090628D01*
X123918587Y-77088554D01*
X123905694Y-77088088D01*
X123870068Y-77087237D01*
X123841936Y-77087437D01*
X123841936Y-77087437D01*
G37*
X123841936Y-77087437D02*
X123818675Y-77088815D01*
X123797663Y-77091500D01*
X123783774Y-77094046D01*
X123720017Y-77111768D01*
X123660877Y-77138078D01*
X123607195Y-77172525D01*
X123560880Y-77213551D01*
X123521279Y-77261609D01*
X123489450Y-77315013D01*
X123465389Y-77372600D01*
X123449092Y-77433207D01*
X123440555Y-77495670D01*
X123439772Y-77558826D01*
X123446739Y-77621511D01*
X123461451Y-77682562D01*
X123483905Y-77740815D01*
X123514094Y-77795106D01*
X123552015Y-77844273D01*
X123563420Y-77856357D01*
X123612556Y-77899210D01*
X123666818Y-77933308D01*
X123725962Y-77958521D01*
X123783242Y-77973523D01*
X123808218Y-77976900D01*
X123839683Y-77979082D01*
X123874766Y-77980076D01*
X123910600Y-77979885D01*
X123944315Y-77978515D01*
X123973044Y-77975970D01*
X123990140Y-77973174D01*
X124054084Y-77954532D01*
X124111701Y-77928156D01*
X124163610Y-77893729D01*
X124191568Y-77869739D01*
X124236086Y-77821872D01*
X124271681Y-77769956D01*
X124298539Y-77713532D01*
X124316849Y-77652142D01*
X124326797Y-77585327D01*
X124328860Y-77534324D01*
X124157264Y-77534324D01*
X124156227Y-77571399D01*
X124153201Y-77605373D01*
X124148573Y-77631435D01*
X124131377Y-77682627D01*
X124106696Y-77727780D01*
X124075119Y-77766260D01*
X124037233Y-77797433D01*
X123993628Y-77820663D01*
X123963769Y-77830856D01*
X123941228Y-77834985D01*
X123912346Y-77837351D01*
X123880518Y-77837966D01*
X123849141Y-77836839D01*
X123821613Y-77833981D01*
X123804373Y-77830375D01*
X123757438Y-77811635D01*
X123715919Y-77784953D01*
X123680823Y-77751183D01*
X123653158Y-77711182D01*
X123645032Y-77695029D01*
X123633075Y-77666918D01*
X123624562Y-77641407D01*
X123618965Y-77615686D01*
X123615758Y-77586944D01*
X123614413Y-77552371D01*
X123614274Y-77531140D01*
X123614562Y-77500068D01*
X123615570Y-77476427D01*
X123617592Y-77457496D01*
X123620926Y-77440555D01*
X123625868Y-77422883D01*
X123626166Y-77421920D01*
X123646394Y-77370186D01*
X123672520Y-77326624D01*
X123704832Y-77290937D01*
X123743615Y-77262827D01*
X123789157Y-77241997D01*
X123804373Y-77237066D01*
X123827748Y-77232419D01*
X123857559Y-77229752D01*
X123890274Y-77229083D01*
X123922360Y-77230430D01*
X123950284Y-77233812D01*
X123961535Y-77236260D01*
X124009425Y-77253860D01*
X124051094Y-77279466D01*
X124086458Y-77312991D01*
X124115435Y-77354344D01*
X124137942Y-77403438D01*
X124148462Y-77437160D01*
X124153380Y-77463938D01*
X124156314Y-77497415D01*
X124157264Y-77534324D01*
X124328860Y-77534324D01*
X124328887Y-77533680D01*
X124324879Y-77462883D01*
X124312709Y-77397884D01*
X124292155Y-77338147D01*
X124262999Y-77283133D01*
X124225020Y-77232305D01*
X124190848Y-77196829D01*
X124165606Y-77174577D01*
X124141303Y-77156930D01*
X124113601Y-77140902D01*
X124098177Y-77133083D01*
X124066594Y-77118190D01*
X124039305Y-77107135D01*
X124013586Y-77099281D01*
X123986710Y-77093991D01*
X123955952Y-77090628D01*
X123918587Y-77088554D01*
X123905694Y-77088088D01*
X123870068Y-77087237D01*
X123841936Y-77087437D01*
G36*
X126599990Y-77098143D02*
X126547225Y-77098761D01*
X126503404Y-77099460D01*
X126467313Y-77100395D01*
X126437737Y-77101722D01*
X126413461Y-77103600D01*
X126393270Y-77106183D01*
X126375950Y-77109629D01*
X126360284Y-77114094D01*
X126345059Y-77119734D01*
X126329059Y-77126706D01*
X126311070Y-77135166D01*
X126310529Y-77135425D01*
X126269843Y-77160127D01*
X126236611Y-77191624D01*
X126211142Y-77229487D01*
X126193749Y-77273284D01*
X126186588Y-77306949D01*
X126183667Y-77359377D01*
X126190153Y-77409388D01*
X126205540Y-77456057D01*
X126229324Y-77498456D01*
X126260999Y-77535659D01*
X126300059Y-77566742D01*
X126340103Y-77588279D01*
X126368506Y-77600686D01*
X126346916Y-77621793D01*
X126340776Y-77629094D01*
X126329955Y-77643337D01*
X126315208Y-77663439D01*
X126297285Y-77688320D01*
X126276942Y-77716897D01*
X126254930Y-77748087D01*
X126232002Y-77780810D01*
X126208911Y-77813984D01*
X126186411Y-77846525D01*
X126165254Y-77877353D01*
X126146193Y-77905386D01*
X126129982Y-77929541D01*
X126117372Y-77948736D01*
X126109117Y-77961890D01*
X126105970Y-77967921D01*
X126105960Y-77968030D01*
X126110711Y-77969446D01*
X126123675Y-77970376D01*
X126142918Y-77970858D01*
X126166505Y-77970927D01*
X126192503Y-77970620D01*
X126218979Y-77969974D01*
X126243997Y-77969024D01*
X126265625Y-77967807D01*
X126281928Y-77966360D01*
X126290972Y-77964718D01*
X126291410Y-77964542D01*
X126298314Y-77958404D01*
X126310200Y-77943986D01*
X126327109Y-77921228D01*
X126349081Y-77890072D01*
X126376158Y-77850458D01*
X126408381Y-77802328D01*
X126445789Y-77745623D01*
X126485534Y-77684733D01*
X126497680Y-77667343D01*
X126509457Y-77652648D01*
X126518631Y-77643402D01*
X126519845Y-77642521D01*
X126532080Y-77637915D01*
X126552484Y-77634156D01*
X126577970Y-77631686D01*
X126624120Y-77628696D01*
X126624120Y-77970560D01*
X126791760Y-77970560D01*
X126791760Y-77514445D01*
X126624120Y-77514445D01*
X126546650Y-77512242D01*
X126514758Y-77511121D01*
X126490796Y-77509648D01*
X126472534Y-77507534D01*
X126457743Y-77504491D01*
X126444191Y-77500229D01*
X126439174Y-77498336D01*
X126405333Y-77480383D01*
X126379404Y-77456091D01*
X126361500Y-77425636D01*
X126351735Y-77389191D01*
X126349800Y-77360965D01*
X126354380Y-77324409D01*
X126367606Y-77292518D01*
X126388707Y-77266250D01*
X126416912Y-77246566D01*
X126451449Y-77234424D01*
X126451528Y-77234407D01*
X126466141Y-77232146D01*
X126488185Y-77229813D01*
X126514937Y-77227648D01*
X126543672Y-77225896D01*
X126550671Y-77225559D01*
X126624120Y-77222222D01*
X126624120Y-77514445D01*
X126791760Y-77514445D01*
X126791760Y-77096045D01*
X126599990Y-77098143D01*
X126599990Y-77098143D01*
G37*
X126599990Y-77098143D02*
X126547225Y-77098761D01*
X126503404Y-77099460D01*
X126467313Y-77100395D01*
X126437737Y-77101722D01*
X126413461Y-77103600D01*
X126393270Y-77106183D01*
X126375950Y-77109629D01*
X126360284Y-77114094D01*
X126345059Y-77119734D01*
X126329059Y-77126706D01*
X126311070Y-77135166D01*
X126310529Y-77135425D01*
X126269843Y-77160127D01*
X126236611Y-77191624D01*
X126211142Y-77229487D01*
X126193749Y-77273284D01*
X126186588Y-77306949D01*
X126183667Y-77359377D01*
X126190153Y-77409388D01*
X126205540Y-77456057D01*
X126229324Y-77498456D01*
X126260999Y-77535659D01*
X126300059Y-77566742D01*
X126340103Y-77588279D01*
X126368506Y-77600686D01*
X126346916Y-77621793D01*
X126340776Y-77629094D01*
X126329955Y-77643337D01*
X126315208Y-77663439D01*
X126297285Y-77688320D01*
X126276942Y-77716897D01*
X126254930Y-77748087D01*
X126232002Y-77780810D01*
X126208911Y-77813984D01*
X126186411Y-77846525D01*
X126165254Y-77877353D01*
X126146193Y-77905386D01*
X126129982Y-77929541D01*
X126117372Y-77948736D01*
X126109117Y-77961890D01*
X126105970Y-77967921D01*
X126105960Y-77968030D01*
X126110711Y-77969446D01*
X126123675Y-77970376D01*
X126142918Y-77970858D01*
X126166505Y-77970927D01*
X126192503Y-77970620D01*
X126218979Y-77969974D01*
X126243997Y-77969024D01*
X126265625Y-77967807D01*
X126281928Y-77966360D01*
X126290972Y-77964718D01*
X126291410Y-77964542D01*
X126298314Y-77958404D01*
X126310200Y-77943986D01*
X126327109Y-77921228D01*
X126349081Y-77890072D01*
X126376158Y-77850458D01*
X126408381Y-77802328D01*
X126445789Y-77745623D01*
X126485534Y-77684733D01*
X126497680Y-77667343D01*
X126509457Y-77652648D01*
X126518631Y-77643402D01*
X126519845Y-77642521D01*
X126532080Y-77637915D01*
X126552484Y-77634156D01*
X126577970Y-77631686D01*
X126624120Y-77628696D01*
X126624120Y-77970560D01*
X126791760Y-77970560D01*
X126791760Y-77514445D01*
X126624120Y-77514445D01*
X126546650Y-77512242D01*
X126514758Y-77511121D01*
X126490796Y-77509648D01*
X126472534Y-77507534D01*
X126457743Y-77504491D01*
X126444191Y-77500229D01*
X126439174Y-77498336D01*
X126405333Y-77480383D01*
X126379404Y-77456091D01*
X126361500Y-77425636D01*
X126351735Y-77389191D01*
X126349800Y-77360965D01*
X126354380Y-77324409D01*
X126367606Y-77292518D01*
X126388707Y-77266250D01*
X126416912Y-77246566D01*
X126451449Y-77234424D01*
X126451528Y-77234407D01*
X126466141Y-77232146D01*
X126488185Y-77229813D01*
X126514937Y-77227648D01*
X126543672Y-77225896D01*
X126550671Y-77225559D01*
X126624120Y-77222222D01*
X126624120Y-77514445D01*
X126791760Y-77514445D01*
X126791760Y-77096045D01*
X126599990Y-77098143D01*
G36*
X124860090Y-77098039D02*
X124808169Y-77098519D01*
X124765318Y-77098995D01*
X124730446Y-77099525D01*
X124702465Y-77100168D01*
X124680284Y-77100983D01*
X124662813Y-77102029D01*
X124648963Y-77103364D01*
X124637643Y-77105048D01*
X124627763Y-77107139D01*
X124618234Y-77109696D01*
X124612457Y-77111411D01*
X124563998Y-77129941D01*
X124523336Y-77153722D01*
X124490925Y-77182405D01*
X124467224Y-77215645D01*
X124462407Y-77225291D01*
X124449619Y-77262931D01*
X124443386Y-77303799D01*
X124443685Y-77345135D01*
X124450495Y-77384178D01*
X124463794Y-77418168D01*
X124463929Y-77418417D01*
X124482652Y-77444959D01*
X124508407Y-77470560D01*
X124538222Y-77492532D01*
X124557912Y-77503377D01*
X124573426Y-77510934D01*
X124580778Y-77515451D01*
X124581033Y-77518143D01*
X124575254Y-77520223D01*
X124573152Y-77520750D01*
X124545804Y-77530219D01*
X124516527Y-77544828D01*
X124489030Y-77562414D01*
X124467025Y-77580819D01*
X124463381Y-77584663D01*
X124443091Y-77611269D01*
X124429568Y-77639466D01*
X124421959Y-77671755D01*
X124419411Y-77710636D01*
X124419400Y-77713757D01*
X124423518Y-77765496D01*
X124435945Y-77811573D01*
X124456797Y-77852142D01*
X124486189Y-77887353D01*
X124524233Y-77917360D01*
X124571045Y-77942312D01*
X124600299Y-77953840D01*
X124640380Y-77968007D01*
X125069640Y-77971161D01*
X125069640Y-77589560D01*
X124902000Y-77589560D01*
X124902000Y-77845078D01*
X124799130Y-77842172D01*
X124759892Y-77840850D01*
X124729257Y-77839277D01*
X124705669Y-77837312D01*
X124687573Y-77834808D01*
X124673412Y-77831625D01*
X124668510Y-77830132D01*
X124640357Y-77816657D01*
X124619459Y-77800529D01*
X124600225Y-77775824D01*
X124588250Y-77747062D01*
X124583445Y-77716273D01*
X124585723Y-77685491D01*
X124594998Y-77656748D01*
X124611181Y-77632075D01*
X124627307Y-77617803D01*
X124642865Y-77608584D01*
X124660513Y-77601488D01*
X124681717Y-77596282D01*
X124707944Y-77592732D01*
X124740661Y-77590603D01*
X124781335Y-77589660D01*
X124804008Y-77589560D01*
X124902000Y-77589560D01*
X125069640Y-77589560D01*
X125069640Y-77474318D01*
X124902000Y-77474318D01*
X124811830Y-77471156D01*
X124773511Y-77469380D01*
X124740860Y-77466993D01*
X124715320Y-77464128D01*
X124698335Y-77460918D01*
X124697037Y-77460546D01*
X124663192Y-77446693D01*
X124638092Y-77427946D01*
X124621270Y-77403700D01*
X124612260Y-77373347D01*
X124610350Y-77347850D01*
X124611218Y-77324510D01*
X124614728Y-77306495D01*
X124621851Y-77289106D01*
X124622968Y-77286890D01*
X124634448Y-77269397D01*
X124649843Y-77255196D01*
X124670102Y-77244018D01*
X124696171Y-77235595D01*
X124728997Y-77229658D01*
X124769528Y-77225938D01*
X124818711Y-77224166D01*
X124844850Y-77223931D01*
X124902000Y-77223800D01*
X124902000Y-77474318D01*
X125069640Y-77474318D01*
X125069640Y-77096186D01*
X124860090Y-77098039D01*
X124860090Y-77098039D01*
G37*
X124860090Y-77098039D02*
X124808169Y-77098519D01*
X124765318Y-77098995D01*
X124730446Y-77099525D01*
X124702465Y-77100168D01*
X124680284Y-77100983D01*
X124662813Y-77102029D01*
X124648963Y-77103364D01*
X124637643Y-77105048D01*
X124627763Y-77107139D01*
X124618234Y-77109696D01*
X124612457Y-77111411D01*
X124563998Y-77129941D01*
X124523336Y-77153722D01*
X124490925Y-77182405D01*
X124467224Y-77215645D01*
X124462407Y-77225291D01*
X124449619Y-77262931D01*
X124443386Y-77303799D01*
X124443685Y-77345135D01*
X124450495Y-77384178D01*
X124463794Y-77418168D01*
X124463929Y-77418417D01*
X124482652Y-77444959D01*
X124508407Y-77470560D01*
X124538222Y-77492532D01*
X124557912Y-77503377D01*
X124573426Y-77510934D01*
X124580778Y-77515451D01*
X124581033Y-77518143D01*
X124575254Y-77520223D01*
X124573152Y-77520750D01*
X124545804Y-77530219D01*
X124516527Y-77544828D01*
X124489030Y-77562414D01*
X124467025Y-77580819D01*
X124463381Y-77584663D01*
X124443091Y-77611269D01*
X124429568Y-77639466D01*
X124421959Y-77671755D01*
X124419411Y-77710636D01*
X124419400Y-77713757D01*
X124423518Y-77765496D01*
X124435945Y-77811573D01*
X124456797Y-77852142D01*
X124486189Y-77887353D01*
X124524233Y-77917360D01*
X124571045Y-77942312D01*
X124600299Y-77953840D01*
X124640380Y-77968007D01*
X125069640Y-77971161D01*
X125069640Y-77589560D01*
X124902000Y-77589560D01*
X124902000Y-77845078D01*
X124799130Y-77842172D01*
X124759892Y-77840850D01*
X124729257Y-77839277D01*
X124705669Y-77837312D01*
X124687573Y-77834808D01*
X124673412Y-77831625D01*
X124668510Y-77830132D01*
X124640357Y-77816657D01*
X124619459Y-77800529D01*
X124600225Y-77775824D01*
X124588250Y-77747062D01*
X124583445Y-77716273D01*
X124585723Y-77685491D01*
X124594998Y-77656748D01*
X124611181Y-77632075D01*
X124627307Y-77617803D01*
X124642865Y-77608584D01*
X124660513Y-77601488D01*
X124681717Y-77596282D01*
X124707944Y-77592732D01*
X124740661Y-77590603D01*
X124781335Y-77589660D01*
X124804008Y-77589560D01*
X124902000Y-77589560D01*
X125069640Y-77589560D01*
X125069640Y-77474318D01*
X124902000Y-77474318D01*
X124811830Y-77471156D01*
X124773511Y-77469380D01*
X124740860Y-77466993D01*
X124715320Y-77464128D01*
X124698335Y-77460918D01*
X124697037Y-77460546D01*
X124663192Y-77446693D01*
X124638092Y-77427946D01*
X124621270Y-77403700D01*
X124612260Y-77373347D01*
X124610350Y-77347850D01*
X124611218Y-77324510D01*
X124614728Y-77306495D01*
X124621851Y-77289106D01*
X124622968Y-77286890D01*
X124634448Y-77269397D01*
X124649843Y-77255196D01*
X124670102Y-77244018D01*
X124696171Y-77235595D01*
X124728997Y-77229658D01*
X124769528Y-77225938D01*
X124818711Y-77224166D01*
X124844850Y-77223931D01*
X124902000Y-77223800D01*
X124902000Y-77474318D01*
X125069640Y-77474318D01*
X125069640Y-77096186D01*
X124860090Y-77098039D01*
G36*
X123274845Y-77111012D02*
X123269602Y-77118427D01*
X123260292Y-77133627D01*
X123247573Y-77155404D01*
X123232104Y-77182549D01*
X123214546Y-77213853D01*
X123195556Y-77248110D01*
X123175796Y-77284109D01*
X123155922Y-77320644D01*
X123136596Y-77356505D01*
X123118476Y-77390484D01*
X123102221Y-77421372D01*
X123088492Y-77447963D01*
X123077946Y-77469046D01*
X123071243Y-77483414D01*
X123069963Y-77486538D01*
X123064380Y-77499472D01*
X123059777Y-77507257D01*
X123058401Y-77508280D01*
X123054899Y-77503987D01*
X123048821Y-77492721D01*
X123041468Y-77476899D01*
X123041306Y-77476530D01*
X123033391Y-77459493D01*
X123021899Y-77436303D01*
X123007469Y-77408133D01*
X122990745Y-77376158D01*
X122972368Y-77341551D01*
X122952979Y-77305487D01*
X122933220Y-77269140D01*
X122913731Y-77233685D01*
X122895156Y-77200295D01*
X122878135Y-77170145D01*
X122863309Y-77144409D01*
X122851321Y-77124261D01*
X122842812Y-77110876D01*
X122838632Y-77105561D01*
X122833079Y-77102206D01*
X122825736Y-77099852D01*
X122814968Y-77098371D01*
X122799138Y-77097633D01*
X122776610Y-77097511D01*
X122745747Y-77097876D01*
X122741690Y-77097941D01*
X122656786Y-77099340D01*
X122816733Y-77370689D01*
X122976680Y-77642039D01*
X122976680Y-77970560D01*
X123144320Y-77970560D01*
X123144320Y-77635098D01*
X123301800Y-77368742D01*
X123329830Y-77321289D01*
X123356264Y-77276451D01*
X123380658Y-77234988D01*
X123402567Y-77197659D01*
X123421546Y-77165226D01*
X123437150Y-77138447D01*
X123448936Y-77118083D01*
X123456458Y-77104894D01*
X123459271Y-77099640D01*
X123459280Y-77099593D01*
X123454477Y-77098672D01*
X123441173Y-77097878D01*
X123421025Y-77097267D01*
X123395694Y-77096893D01*
X123373871Y-77096800D01*
X123288461Y-77096800D01*
X123274845Y-77111012D01*
X123274845Y-77111012D01*
G37*
X123274845Y-77111012D02*
X123269602Y-77118427D01*
X123260292Y-77133627D01*
X123247573Y-77155404D01*
X123232104Y-77182549D01*
X123214546Y-77213853D01*
X123195556Y-77248110D01*
X123175796Y-77284109D01*
X123155922Y-77320644D01*
X123136596Y-77356505D01*
X123118476Y-77390484D01*
X123102221Y-77421372D01*
X123088492Y-77447963D01*
X123077946Y-77469046D01*
X123071243Y-77483414D01*
X123069963Y-77486538D01*
X123064380Y-77499472D01*
X123059777Y-77507257D01*
X123058401Y-77508280D01*
X123054899Y-77503987D01*
X123048821Y-77492721D01*
X123041468Y-77476899D01*
X123041306Y-77476530D01*
X123033391Y-77459493D01*
X123021899Y-77436303D01*
X123007469Y-77408133D01*
X122990745Y-77376158D01*
X122972368Y-77341551D01*
X122952979Y-77305487D01*
X122933220Y-77269140D01*
X122913731Y-77233685D01*
X122895156Y-77200295D01*
X122878135Y-77170145D01*
X122863309Y-77144409D01*
X122851321Y-77124261D01*
X122842812Y-77110876D01*
X122838632Y-77105561D01*
X122833079Y-77102206D01*
X122825736Y-77099852D01*
X122814968Y-77098371D01*
X122799138Y-77097633D01*
X122776610Y-77097511D01*
X122745747Y-77097876D01*
X122741690Y-77097941D01*
X122656786Y-77099340D01*
X122816733Y-77370689D01*
X122976680Y-77642039D01*
X122976680Y-77970560D01*
X123144320Y-77970560D01*
X123144320Y-77635098D01*
X123301800Y-77368742D01*
X123329830Y-77321289D01*
X123356264Y-77276451D01*
X123380658Y-77234988D01*
X123402567Y-77197659D01*
X123421546Y-77165226D01*
X123437150Y-77138447D01*
X123448936Y-77118083D01*
X123456458Y-77104894D01*
X123459271Y-77099640D01*
X123459280Y-77099593D01*
X123454477Y-77098672D01*
X123441173Y-77097878D01*
X123421025Y-77097267D01*
X123395694Y-77096893D01*
X123373871Y-77096800D01*
X123288461Y-77096800D01*
X123274845Y-77111012D01*
D11*
X124425000Y-82150000D03*
X125425000Y-82150000D03*
X125425000Y-80900000D03*
X124425000Y-80900000D03*
D12*
X124775000Y-91300000D03*
D13*
X122235000Y-94800000D03*
X122235000Y-97340000D03*
X124775000Y-97340000D03*
X127315000Y-97340000D03*
X124775000Y-94800000D03*
X127315000Y-94800000D03*
M02*
