G04 #@! TF.GenerationSoftware,KiCad,Pcbnew,(2018-01-21 revision 6b9866de8)-makepkg*
G04 #@! TF.CreationDate,2018-10-15T22:55:56+02:00*
G04 #@! TF.ProjectId,A1339_long_board,41313333395F6C6F6E675F626F617264,rev?*
G04 #@! TF.SameCoordinates,Original*
G04 #@! TF.FileFunction,Copper,L1,Top,Signal*
G04 #@! TF.FilePolarity,Positive*
%FSLAX46Y46*%
G04 Gerber Fmt 4.6, Leading zero omitted, Abs format (unit mm)*
G04 Created by KiCad (PCBNEW (2018-01-21 revision 6b9866de8)-makepkg) date 10/15/18 22:55:56*
%MOMM*%
%LPD*%
G01*
G04 APERTURE LIST*
%ADD10R,0.450000X1.450000*%
%ADD11C,3.800000*%
%ADD12C,1.998980*%
%ADD13C,0.800000*%
%ADD14C,0.254000*%
%ADD15C,0.152400*%
G04 APERTURE END LIST*
D10*
X122825000Y-77850000D03*
X123475000Y-77850000D03*
X124125000Y-77850000D03*
X124775000Y-77850000D03*
X125425000Y-77850000D03*
X126075000Y-77850000D03*
X126725000Y-77850000D03*
X126725000Y-83750000D03*
X126075000Y-83750000D03*
X125425000Y-83750000D03*
X124775000Y-83750000D03*
X124125000Y-83750000D03*
X123475000Y-83750000D03*
X122825000Y-83750000D03*
D11*
X124775000Y-91300000D03*
D12*
X122235000Y-94800000D03*
X122235000Y-97340000D03*
X124775000Y-97340000D03*
X127315000Y-97340000D03*
X124775000Y-94800000D03*
X127315000Y-94800000D03*
D13*
X123475000Y-82200000D03*
X127703610Y-92000000D03*
X127675000Y-78800000D03*
X127675000Y-86900000D03*
X127675000Y-89500000D03*
X126646390Y-81500000D03*
X122775000Y-80900000D03*
X124675000Y-79368998D03*
X125775000Y-79700000D03*
D14*
X123475000Y-83750000D02*
X123475000Y-82200000D01*
X126725000Y-83750000D02*
X126725000Y-81578610D01*
X126725000Y-81578610D02*
X126646390Y-81500000D01*
X126725000Y-83750000D02*
X126075000Y-83750000D01*
X125425000Y-83750000D02*
X126075000Y-83750000D01*
X122775000Y-83700000D02*
X122775000Y-82721000D01*
X122825000Y-83750000D02*
X122775000Y-83700000D01*
X122775000Y-82721000D02*
X122775000Y-80900000D01*
D15*
X124675000Y-79368998D02*
X124675000Y-77950000D01*
X124675000Y-77950000D02*
X124775000Y-77850000D01*
X122235000Y-97340000D02*
X122385000Y-97340000D01*
X125775000Y-79700000D02*
X125775000Y-79134315D01*
X125775000Y-79134315D02*
X125425000Y-78784315D01*
X125425000Y-78784315D02*
X125425000Y-78727400D01*
X125425000Y-78727400D02*
X125425000Y-77850000D01*
X128375000Y-92400000D02*
X128375000Y-78600000D01*
X126075000Y-76700000D02*
X126075000Y-77850000D01*
X127370190Y-93404810D02*
X128375000Y-92400000D01*
X126670190Y-93404810D02*
X127370190Y-93404810D01*
X126075000Y-96100000D02*
X126075000Y-94000000D01*
X126075000Y-94000000D02*
X126670190Y-93404810D01*
X127315000Y-97340000D02*
X126075000Y-96100000D01*
X128375000Y-78600000D02*
X127775000Y-78000000D01*
X127775000Y-78000000D02*
X127775000Y-77100000D01*
X126275000Y-76500000D02*
X126075000Y-76700000D01*
X127775000Y-77100000D02*
X127175000Y-76500000D01*
X127175000Y-76500000D02*
X126275000Y-76500000D01*
X126575000Y-85700000D02*
X127475000Y-84800000D01*
X126575000Y-89800000D02*
X126575000Y-85700000D01*
X127075000Y-90300000D02*
X126575000Y-89800000D01*
X126725000Y-78950000D02*
X126725000Y-77850000D01*
X127075000Y-92300000D02*
X127075000Y-90300000D01*
X124775000Y-94800000D02*
X124775000Y-94600000D01*
X124775000Y-94600000D02*
X127075000Y-92300000D01*
X127475000Y-84800000D02*
X127475000Y-79700000D01*
X127475000Y-79700000D02*
X126725000Y-78950000D01*
D14*
G36*
X123574459Y-75537958D02*
X123575574Y-75545779D01*
X123685542Y-75858670D01*
X123760930Y-75986070D01*
X123982266Y-76233062D01*
X124100670Y-76321915D01*
X124399675Y-76465402D01*
X124399677Y-76465403D01*
X124506291Y-76492748D01*
X124543069Y-76502181D01*
X124543070Y-76502181D01*
X124545600Y-76502320D01*
X124545600Y-76841002D01*
X124450000Y-76860019D01*
X124350000Y-76840127D01*
X123900000Y-76840127D01*
X123800000Y-76860019D01*
X123700000Y-76840127D01*
X123250000Y-76840127D01*
X123150000Y-76860019D01*
X123050000Y-76840127D01*
X122600000Y-76840127D01*
X122490984Y-76861812D01*
X122398564Y-76923564D01*
X122336812Y-77015984D01*
X122315127Y-77125000D01*
X122315127Y-78575000D01*
X122336812Y-78684016D01*
X122398564Y-78776436D01*
X122490984Y-78838188D01*
X122600000Y-78859873D01*
X123050000Y-78859873D01*
X123150000Y-78839981D01*
X123250000Y-78859873D01*
X123700000Y-78859873D01*
X123800000Y-78839981D01*
X123900000Y-78859873D01*
X124223309Y-78859873D01*
X124099033Y-78984149D01*
X123995600Y-79233857D01*
X123995600Y-79504139D01*
X124099033Y-79753847D01*
X124290151Y-79944965D01*
X124539859Y-80048398D01*
X124810141Y-80048398D01*
X125059849Y-79944965D01*
X125117296Y-79887518D01*
X125199033Y-80084849D01*
X125390151Y-80275967D01*
X125639859Y-80379400D01*
X125910141Y-80379400D01*
X126159849Y-80275967D01*
X126350967Y-80084849D01*
X126454400Y-79835141D01*
X126454400Y-79564859D01*
X126350967Y-79315151D01*
X126159849Y-79124033D01*
X126125745Y-79109907D01*
X126103532Y-78998232D01*
X126026447Y-78882868D01*
X126003452Y-78859873D01*
X126189741Y-78859873D01*
X126391630Y-79061762D01*
X126396468Y-79086083D01*
X126473553Y-79201447D01*
X127119400Y-79847294D01*
X127119400Y-81012194D01*
X127031239Y-80924033D01*
X126781531Y-80820600D01*
X126511249Y-80820600D01*
X126261541Y-80924033D01*
X126070423Y-81115151D01*
X125966990Y-81364859D01*
X125966990Y-81635141D01*
X126070423Y-81884849D01*
X126261541Y-82075967D01*
X126318600Y-82099602D01*
X126318600Y-82743827D01*
X126300000Y-82740127D01*
X125850000Y-82740127D01*
X125750000Y-82760019D01*
X125650000Y-82740127D01*
X125200000Y-82740127D01*
X125100000Y-82760019D01*
X125000000Y-82740127D01*
X124550000Y-82740127D01*
X124450000Y-82760019D01*
X124350000Y-82740127D01*
X124025785Y-82740127D01*
X123944595Y-82658938D01*
X123785891Y-82593200D01*
X123695450Y-82593200D01*
X123587500Y-82701150D01*
X123587500Y-83623000D01*
X123615127Y-83623000D01*
X123615127Y-83877000D01*
X123587500Y-83877000D01*
X123587500Y-84798850D01*
X123695450Y-84906800D01*
X123785891Y-84906800D01*
X123944595Y-84841062D01*
X124025785Y-84759873D01*
X124350000Y-84759873D01*
X124450000Y-84739981D01*
X124550000Y-84759873D01*
X125000000Y-84759873D01*
X125100000Y-84739981D01*
X125200000Y-84759873D01*
X125650000Y-84759873D01*
X125750000Y-84739981D01*
X125850000Y-84759873D01*
X126195600Y-84759873D01*
X126195600Y-89638463D01*
X126009531Y-89452394D01*
X125208510Y-89120600D01*
X124341490Y-89120600D01*
X123540469Y-89452394D01*
X122927394Y-90065469D01*
X122595600Y-90866490D01*
X122595600Y-91733510D01*
X122927394Y-92534531D01*
X123540469Y-93147606D01*
X124341490Y-93479400D01*
X125208510Y-93479400D01*
X125522952Y-93349154D01*
X125256799Y-93615307D01*
X125029387Y-93521110D01*
X124520613Y-93521110D01*
X124050567Y-93715809D01*
X123690809Y-94075567D01*
X123593964Y-94309373D01*
X123485793Y-94048227D01*
X123276144Y-93938461D01*
X122414605Y-94800000D01*
X123276144Y-95661539D01*
X123485793Y-95551773D01*
X123586267Y-95272045D01*
X123690809Y-95524433D01*
X124050567Y-95884191D01*
X124499151Y-96070000D01*
X124050567Y-96255809D01*
X123690809Y-96615567D01*
X123505000Y-97064151D01*
X123319191Y-96615567D01*
X122959433Y-96255809D01*
X122725627Y-96158964D01*
X122986773Y-96050793D01*
X123096539Y-95841144D01*
X122235000Y-94979605D01*
X121373461Y-95841144D01*
X121483227Y-96050793D01*
X121762955Y-96151267D01*
X121510567Y-96255809D01*
X121154400Y-96611976D01*
X121154400Y-95640881D01*
X121193856Y-95661539D01*
X122055395Y-94800000D01*
X121193856Y-93938461D01*
X121154400Y-93959119D01*
X121154400Y-93758856D01*
X121373461Y-93758856D01*
X122235000Y-94620395D01*
X123096539Y-93758856D01*
X122986773Y-93549207D01*
X122450890Y-93356726D01*
X121882140Y-93383971D01*
X121483227Y-93549207D01*
X121373461Y-93758856D01*
X121154400Y-93758856D01*
X121154400Y-80764859D01*
X122095600Y-80764859D01*
X122095600Y-81035141D01*
X122199033Y-81284849D01*
X122368600Y-81454416D01*
X122368600Y-82868409D01*
X122336812Y-82915984D01*
X122315127Y-83025000D01*
X122315127Y-84475000D01*
X122336812Y-84584016D01*
X122398564Y-84676436D01*
X122490984Y-84738188D01*
X122600000Y-84759873D01*
X122924215Y-84759873D01*
X123005405Y-84841062D01*
X123164109Y-84906800D01*
X123254550Y-84906800D01*
X123362500Y-84798850D01*
X123362500Y-83877000D01*
X123334873Y-83877000D01*
X123334873Y-83623000D01*
X123362500Y-83623000D01*
X123362500Y-82701150D01*
X123254550Y-82593200D01*
X123181400Y-82593200D01*
X123181400Y-81454416D01*
X123350967Y-81284849D01*
X123454400Y-81035141D01*
X123454400Y-80764859D01*
X123350967Y-80515151D01*
X123159849Y-80324033D01*
X122910141Y-80220600D01*
X122639859Y-80220600D01*
X122390151Y-80324033D01*
X122199033Y-80515151D01*
X122095600Y-80764859D01*
X121154400Y-80764859D01*
X121154400Y-78840081D01*
X121435886Y-77419677D01*
X122218286Y-76246925D01*
X123404819Y-75452887D01*
X123555931Y-75408009D01*
X123574459Y-75537958D01*
X123574459Y-75537958D01*
G37*
X123574459Y-75537958D02*
X123575574Y-75545779D01*
X123685542Y-75858670D01*
X123760930Y-75986070D01*
X123982266Y-76233062D01*
X124100670Y-76321915D01*
X124399675Y-76465402D01*
X124399677Y-76465403D01*
X124506291Y-76492748D01*
X124543069Y-76502181D01*
X124543070Y-76502181D01*
X124545600Y-76502320D01*
X124545600Y-76841002D01*
X124450000Y-76860019D01*
X124350000Y-76840127D01*
X123900000Y-76840127D01*
X123800000Y-76860019D01*
X123700000Y-76840127D01*
X123250000Y-76840127D01*
X123150000Y-76860019D01*
X123050000Y-76840127D01*
X122600000Y-76840127D01*
X122490984Y-76861812D01*
X122398564Y-76923564D01*
X122336812Y-77015984D01*
X122315127Y-77125000D01*
X122315127Y-78575000D01*
X122336812Y-78684016D01*
X122398564Y-78776436D01*
X122490984Y-78838188D01*
X122600000Y-78859873D01*
X123050000Y-78859873D01*
X123150000Y-78839981D01*
X123250000Y-78859873D01*
X123700000Y-78859873D01*
X123800000Y-78839981D01*
X123900000Y-78859873D01*
X124223309Y-78859873D01*
X124099033Y-78984149D01*
X123995600Y-79233857D01*
X123995600Y-79504139D01*
X124099033Y-79753847D01*
X124290151Y-79944965D01*
X124539859Y-80048398D01*
X124810141Y-80048398D01*
X125059849Y-79944965D01*
X125117296Y-79887518D01*
X125199033Y-80084849D01*
X125390151Y-80275967D01*
X125639859Y-80379400D01*
X125910141Y-80379400D01*
X126159849Y-80275967D01*
X126350967Y-80084849D01*
X126454400Y-79835141D01*
X126454400Y-79564859D01*
X126350967Y-79315151D01*
X126159849Y-79124033D01*
X126125745Y-79109907D01*
X126103532Y-78998232D01*
X126026447Y-78882868D01*
X126003452Y-78859873D01*
X126189741Y-78859873D01*
X126391630Y-79061762D01*
X126396468Y-79086083D01*
X126473553Y-79201447D01*
X127119400Y-79847294D01*
X127119400Y-81012194D01*
X127031239Y-80924033D01*
X126781531Y-80820600D01*
X126511249Y-80820600D01*
X126261541Y-80924033D01*
X126070423Y-81115151D01*
X125966990Y-81364859D01*
X125966990Y-81635141D01*
X126070423Y-81884849D01*
X126261541Y-82075967D01*
X126318600Y-82099602D01*
X126318600Y-82743827D01*
X126300000Y-82740127D01*
X125850000Y-82740127D01*
X125750000Y-82760019D01*
X125650000Y-82740127D01*
X125200000Y-82740127D01*
X125100000Y-82760019D01*
X125000000Y-82740127D01*
X124550000Y-82740127D01*
X124450000Y-82760019D01*
X124350000Y-82740127D01*
X124025785Y-82740127D01*
X123944595Y-82658938D01*
X123785891Y-82593200D01*
X123695450Y-82593200D01*
X123587500Y-82701150D01*
X123587500Y-83623000D01*
X123615127Y-83623000D01*
X123615127Y-83877000D01*
X123587500Y-83877000D01*
X123587500Y-84798850D01*
X123695450Y-84906800D01*
X123785891Y-84906800D01*
X123944595Y-84841062D01*
X124025785Y-84759873D01*
X124350000Y-84759873D01*
X124450000Y-84739981D01*
X124550000Y-84759873D01*
X125000000Y-84759873D01*
X125100000Y-84739981D01*
X125200000Y-84759873D01*
X125650000Y-84759873D01*
X125750000Y-84739981D01*
X125850000Y-84759873D01*
X126195600Y-84759873D01*
X126195600Y-89638463D01*
X126009531Y-89452394D01*
X125208510Y-89120600D01*
X124341490Y-89120600D01*
X123540469Y-89452394D01*
X122927394Y-90065469D01*
X122595600Y-90866490D01*
X122595600Y-91733510D01*
X122927394Y-92534531D01*
X123540469Y-93147606D01*
X124341490Y-93479400D01*
X125208510Y-93479400D01*
X125522952Y-93349154D01*
X125256799Y-93615307D01*
X125029387Y-93521110D01*
X124520613Y-93521110D01*
X124050567Y-93715809D01*
X123690809Y-94075567D01*
X123593964Y-94309373D01*
X123485793Y-94048227D01*
X123276144Y-93938461D01*
X122414605Y-94800000D01*
X123276144Y-95661539D01*
X123485793Y-95551773D01*
X123586267Y-95272045D01*
X123690809Y-95524433D01*
X124050567Y-95884191D01*
X124499151Y-96070000D01*
X124050567Y-96255809D01*
X123690809Y-96615567D01*
X123505000Y-97064151D01*
X123319191Y-96615567D01*
X122959433Y-96255809D01*
X122725627Y-96158964D01*
X122986773Y-96050793D01*
X123096539Y-95841144D01*
X122235000Y-94979605D01*
X121373461Y-95841144D01*
X121483227Y-96050793D01*
X121762955Y-96151267D01*
X121510567Y-96255809D01*
X121154400Y-96611976D01*
X121154400Y-95640881D01*
X121193856Y-95661539D01*
X122055395Y-94800000D01*
X121193856Y-93938461D01*
X121154400Y-93959119D01*
X121154400Y-93758856D01*
X121373461Y-93758856D01*
X122235000Y-94620395D01*
X123096539Y-93758856D01*
X122986773Y-93549207D01*
X122450890Y-93356726D01*
X121882140Y-93383971D01*
X121483227Y-93549207D01*
X121373461Y-93758856D01*
X121154400Y-93758856D01*
X121154400Y-80764859D01*
X122095600Y-80764859D01*
X122095600Y-81035141D01*
X122199033Y-81284849D01*
X122368600Y-81454416D01*
X122368600Y-82868409D01*
X122336812Y-82915984D01*
X122315127Y-83025000D01*
X122315127Y-84475000D01*
X122336812Y-84584016D01*
X122398564Y-84676436D01*
X122490984Y-84738188D01*
X122600000Y-84759873D01*
X122924215Y-84759873D01*
X123005405Y-84841062D01*
X123164109Y-84906800D01*
X123254550Y-84906800D01*
X123362500Y-84798850D01*
X123362500Y-83877000D01*
X123334873Y-83877000D01*
X123334873Y-83623000D01*
X123362500Y-83623000D01*
X123362500Y-82701150D01*
X123254550Y-82593200D01*
X123181400Y-82593200D01*
X123181400Y-81454416D01*
X123350967Y-81284849D01*
X123454400Y-81035141D01*
X123454400Y-80764859D01*
X123350967Y-80515151D01*
X123159849Y-80324033D01*
X122910141Y-80220600D01*
X122639859Y-80220600D01*
X122390151Y-80324033D01*
X122199033Y-80515151D01*
X122095600Y-80764859D01*
X121154400Y-80764859D01*
X121154400Y-78840081D01*
X121435886Y-77419677D01*
X122218286Y-76246925D01*
X123404819Y-75452887D01*
X123555931Y-75408009D01*
X123574459Y-75537958D01*
G36*
X127419400Y-77247294D02*
X127419400Y-78000000D01*
X127446468Y-78136083D01*
X127523553Y-78251447D01*
X128019400Y-78747294D01*
X128019400Y-92252706D01*
X127222896Y-93049210D01*
X126828684Y-93049210D01*
X127326447Y-92551447D01*
X127403532Y-92436083D01*
X127430600Y-92300000D01*
X127430600Y-90300000D01*
X127403532Y-90163918D01*
X127403532Y-90163917D01*
X127326447Y-90048553D01*
X126930600Y-89652706D01*
X126930600Y-85847294D01*
X127726447Y-85051447D01*
X127803532Y-84936083D01*
X127830600Y-84800000D01*
X127830600Y-79700000D01*
X127803532Y-79563918D01*
X127803532Y-79563917D01*
X127726447Y-79448553D01*
X127093225Y-78815331D01*
X127151436Y-78776436D01*
X127213188Y-78684016D01*
X127234873Y-78575000D01*
X127234873Y-77125000D01*
X127219420Y-77047314D01*
X127419400Y-77247294D01*
X127419400Y-77247294D01*
G37*
X127419400Y-77247294D02*
X127419400Y-78000000D01*
X127446468Y-78136083D01*
X127523553Y-78251447D01*
X128019400Y-78747294D01*
X128019400Y-92252706D01*
X127222896Y-93049210D01*
X126828684Y-93049210D01*
X127326447Y-92551447D01*
X127403532Y-92436083D01*
X127430600Y-92300000D01*
X127430600Y-90300000D01*
X127403532Y-90163918D01*
X127403532Y-90163917D01*
X127326447Y-90048553D01*
X126930600Y-89652706D01*
X126930600Y-85847294D01*
X127726447Y-85051447D01*
X127803532Y-84936083D01*
X127830600Y-84800000D01*
X127830600Y-79700000D01*
X127803532Y-79563918D01*
X127803532Y-79563917D01*
X127726447Y-79448553D01*
X127093225Y-78815331D01*
X127151436Y-78776436D01*
X127213188Y-78684016D01*
X127234873Y-78575000D01*
X127234873Y-77125000D01*
X127219420Y-77047314D01*
X127419400Y-77247294D01*
M02*
